<svg xmlns="http://www.w3.org/2000/svg" viewBox="0 0 844.95 75.09"><defs><style>.cls-1{fill:#b28cc7;}.cls-2{fill:#3bc6b1;}</style></defs><title>how</title><g id="Layer_2" data-name="Layer 2"><g id="Layer_12" data-name="Layer 12"><path class="cls-1" d="M39.9,25.81v49H36.33V51.5H3.57V74.81H0v-49H3.57V48.35H36.33V25.81Z"/><path class="cls-1" d="M60.79,72.71a17.19,17.19,0,0,1-6.54-6.62,19.12,19.12,0,0,1-2.38-9.55A19.16,19.16,0,0,1,54.25,47a17.23,17.23,0,0,1,6.54-6.61,19.54,19.54,0,0,1,18.69,0A17.19,17.19,0,0,1,86,47a19.16,19.16,0,0,1,2.38,9.56A19.12,19.12,0,0,1,86,66.09a17.15,17.15,0,0,1-6.55,6.62,19.54,19.54,0,0,1-18.69,0ZM77.66,70a14.07,14.07,0,0,0,5.25-5.46,16.25,16.25,0,0,0,1.93-8,16.2,16.2,0,0,0-1.93-8,13.94,13.94,0,0,0-5.25-5.46,15.43,15.43,0,0,0-15,0,14.08,14.08,0,0,0-5.25,5.46,16.3,16.3,0,0,0-1.92,8,16.35,16.35,0,0,0,1.92,8A14.21,14.21,0,0,0,62.61,70a15.43,15.43,0,0,0,15,0Z"/><path class="cls-1" d="M150.43,38.27,136.57,74.81h-3.29L121,43.1,108.57,74.81h-3.22L91.49,38.27h3.36L107,70.89l12.46-32.62h3l12.39,32.55,12.32-32.55Z"/><path class="cls-1" d="M194.67,72.5a8.79,8.79,0,0,1-3.33,1.92,12.9,12.9,0,0,1-4.16.67q-4.77,0-7.35-2.63a10,10,0,0,1-2.59-7.31V41.28h-6.72v-3h6.72v-8h3.5v8h11.62v3H180.74V64.8a7.71,7.71,0,0,0,1.71,5.42,6.59,6.59,0,0,0,5.08,1.86,8.16,8.16,0,0,0,5.67-2Z"/><path class="cls-1" d="M233.1,42q4,4,4,11.48V74.81h-3.5V53.74q0-6.16-3.12-9.38c-2.07-2.15-5-3.22-8.71-3.22q-6.45,0-10.15,3.85T207.9,55.35V74.81h-3.5V22.87h3.5v23a13.41,13.41,0,0,1,5.6-5.85A17.77,17.77,0,0,1,222.25,38Q229.11,38,233.1,42Z"/><path class="cls-1" d="M282.45,57.38H251A15.15,15.15,0,0,0,253.19,65a13.89,13.89,0,0,0,5.49,5.15,17.57,17.57,0,0,0,14.42.52,12.9,12.9,0,0,0,5.08-3.81l2,2.31a15.73,15.73,0,0,1-6,4.41,20.83,20.83,0,0,1-17.53-.84A17.27,17.27,0,0,1,250,66.13a18.9,18.9,0,0,1-2.41-9.59A19.86,19.86,0,0,1,249.86,47a16.84,16.84,0,0,1,6.27-6.61,18.11,18.11,0,0,1,17.88,0,16.73,16.73,0,0,1,6.23,6.55,19.62,19.62,0,0,1,2.28,9.52Zm-24.29-14.6a13.15,13.15,0,0,0-4.94,4.83,15.61,15.61,0,0,0-2.13,7h28a14.62,14.62,0,0,0-2.1-7,13.61,13.61,0,0,0-5-4.83,13.78,13.78,0,0,0-6.93-1.75A14,14,0,0,0,258.16,42.78Z"/><path class="cls-1" d="M338.94,40.33a16.78,16.78,0,0,1,6.47,6.58,19.59,19.59,0,0,1,2.34,9.63,19.38,19.38,0,0,1-2.34,9.59,17,17,0,0,1-6.47,6.58,18.28,18.28,0,0,1-9.25,2.38,17,17,0,0,1-8.85-2.35,15.93,15.93,0,0,1-6.13-6.54v8.61h-3.36V22.87h3.5V46.6a15.82,15.82,0,0,1,6.09-6.34A17.22,17.22,0,0,1,329.69,38,18.46,18.46,0,0,1,338.94,40.33ZM337,70a14,14,0,0,0,5.29-5.46,16.35,16.35,0,0,0,1.92-8,16.3,16.3,0,0,0-1.92-8A13.83,13.83,0,0,0,337,43.1a15.48,15.48,0,0,0-15.08,0,13.94,13.94,0,0,0-5.25,5.46,16.3,16.3,0,0,0-1.92,8,16.35,16.35,0,0,0,1.92,8A14.07,14.07,0,0,0,322,70,15.48,15.48,0,0,0,337,70Z"/><path class="cls-1" d="M367.21,40.12A16.67,16.67,0,0,1,375.89,38v3.43l-.84-.07q-6.09,0-9.52,3.81T362.1,55.77v19h-3.5V38.27H362v8A12.69,12.69,0,0,1,367.21,40.12Z"/><path class="cls-1" d="M408.3,41.45q3.65,3.46,3.64,10.19V74.81h-3.36V68.3a12.15,12.15,0,0,1-5.11,5,16.94,16.94,0,0,1-8.05,1.79q-6.09,0-9.62-2.87a9.92,9.92,0,0,1-.28-14.95q3.25-2.84,10.39-2.83h12.53V51.5q0-5.11-2.76-7.77t-8.09-2.66a19.5,19.5,0,0,0-7,1.26A17.46,17.46,0,0,0,385,45.69l-1.75-2.52a19.42,19.42,0,0,1,6.58-3.82A23.92,23.92,0,0,1,397.87,38Q404.67,38,408.3,41.45Zm-4.65,28.67A12.76,12.76,0,0,0,408.44,64V57.17H396q-5.39,0-7.8,2a6.55,6.55,0,0,0-2.42,5.39,6.74,6.74,0,0,0,2.66,5.63c1.78,1.38,4.27,2.07,7.49,2.07A13.73,13.73,0,0,0,403.65,70.12Z"/><path class="cls-1" d="M426.08,28.57a2.64,2.64,0,0,1-.84-2,2.87,2.87,0,0,1,2.87-2.87,2.84,2.84,0,0,1,2,.8,2.66,2.66,0,0,1,.84,2,2.87,2.87,0,0,1-2.87,2.87A2.82,2.82,0,0,1,426.08,28.57Zm.28,9.7h3.5V74.81h-3.5Z"/><path class="cls-1" d="M473.33,42q4,4,4,11.48V74.81h-3.5V53.74q0-6.16-3.11-9.38c-2.08-2.15-5-3.22-8.72-3.22q-6.44,0-10.15,3.85t-3.71,10.36V74.81h-3.5V38.27H448v7.91a13.84,13.84,0,0,1,5.64-6A17.3,17.3,0,0,1,462.48,38Q469.35,38,473.33,42Z"/><path class="cls-2" d="M513.86,33v5.32h11.69v3H513.93V74.81h-3.5V41.28h-6.72v-3h6.72v-5.6a10.09,10.09,0,0,1,2.66-7.35q2.65-2.73,7.49-2.73a13.84,13.84,0,0,1,4,.59A8,8,0,0,1,527.79,25l-1.4,2.66a8.08,8.08,0,0,0-5.67-2Q513.87,25.6,513.86,33Z"/><path class="cls-2" d="M564.68,38.27V74.81h-3.36V67a13.54,13.54,0,0,1-5.39,6,16,16,0,0,1-8.4,2.14q-7.14,0-11.2-4t-4.06-11.48V38.27h3.5V59.34q0,6.15,3.15,9.38t8.89,3.22a12.77,12.77,0,0,0,9.77-3.85q3.6-3.86,3.6-10.36V38.27Z"/><path class="cls-2" d="M608.22,42q4,4,4,11.48V74.81h-3.5V53.74q0-6.16-3.12-9.38c-2.07-2.15-5-3.22-8.71-3.22q-6.43,0-10.15,3.85T583,55.35V74.81h-3.5V38.27h3.36v7.91a13.87,13.87,0,0,1,5.63-6A17.34,17.34,0,0,1,597.37,38Q604.23,38,608.22,42Z"/><path class="cls-2" d="M631.67,72.71a17,17,0,0,1-6.58-6.62,19.12,19.12,0,0,1-2.38-9.55,19.29,19.29,0,0,1,2.38-9.63,16.85,16.85,0,0,1,6.58-6.58A19.22,19.22,0,0,1,641.19,38a18.43,18.43,0,0,1,8,1.71,14.49,14.49,0,0,1,5.85,5l-2.59,1.89a12.46,12.46,0,0,0-4.87-4.1,14.84,14.84,0,0,0-6.4-1.36,15.32,15.32,0,0,0-7.67,1.92,13.76,13.76,0,0,0-5.32,5.43,16.44,16.44,0,0,0-1.92,8,16.49,16.49,0,0,0,1.92,8.05A13.73,13.73,0,0,0,633.52,70a15.23,15.23,0,0,0,7.67,1.93,14.84,14.84,0,0,0,6.4-1.37,12.44,12.44,0,0,0,4.87-4.09l2.59,1.89a14.47,14.47,0,0,1-5.85,5,18.3,18.3,0,0,1-8,1.72A19,19,0,0,1,631.67,72.71Z"/><path class="cls-2" d="M684.1,72.5a8.79,8.79,0,0,1-3.33,1.92,12.9,12.9,0,0,1-4.16.67q-4.77,0-7.35-2.63a10,10,0,0,1-2.59-7.31V41.28H660v-3h6.72v-8h3.5v8h11.62v3H670.17V64.8a7.71,7.71,0,0,0,1.71,5.42A6.59,6.59,0,0,0,677,72.08a8.16,8.16,0,0,0,5.67-2Z"/><path class="cls-2" d="M693.55,28.57a2.64,2.64,0,0,1-.84-2,2.87,2.87,0,0,1,2.87-2.87,2.86,2.86,0,0,1,2,.8,2.66,2.66,0,0,1,.84,2,2.87,2.87,0,0,1-2.87,2.87A2.81,2.81,0,0,1,693.55,28.57Zm.28,9.7h3.5V74.81h-3.5Z"/><path class="cls-2" d="M717,72.71a17.06,17.06,0,0,1-6.54-6.62,19.12,19.12,0,0,1-2.38-9.55A19.16,19.16,0,0,1,710.49,47,17.1,17.1,0,0,1,717,40.37a19.54,19.54,0,0,1,18.69,0A17.19,17.19,0,0,1,742.27,47a20.37,20.37,0,0,1,0,19.11,17.15,17.15,0,0,1-6.55,6.62,19.54,19.54,0,0,1-18.69,0ZM733.9,70a14.07,14.07,0,0,0,5.25-5.46,17.46,17.46,0,0,0,0-16,13.94,13.94,0,0,0-5.25-5.46,15.43,15.43,0,0,0-15,0,13.94,13.94,0,0,0-5.25,5.46,16.3,16.3,0,0,0-1.92,8,16.35,16.35,0,0,0,1.92,8A14.07,14.07,0,0,0,718.85,70a15.43,15.43,0,0,0,15,0Z"/><path class="cls-2" d="M784.2,42q4,4,4,11.48V74.81h-3.5V53.74q0-6.16-3.12-9.38t-8.71-3.22q-6.45,0-10.15,3.85T759,55.35V74.81h-3.5V38.27h3.36v7.91a13.81,13.81,0,0,1,5.63-6A17.34,17.34,0,0,1,773.35,38Q780.21,38,784.2,42Z"/><path class="cls-2" d="M821.25,45.14a21.81,21.81,0,0,1,3.51-5.61,62.88,62.88,0,0,1,5.51-5.34,46,46,0,0,0,7-7.4,13.78,13.78,0,0,0,2.25-8.12A12.31,12.31,0,0,0,834.67,8.6C831.45,6,827,4.72,821.14,4.72A31.42,31.42,0,0,0,809,6.87a23.68,23.68,0,0,0-8.92,6.55l-3.88-3Q804.9,0,821.46,0q10.69,0,17.09,4.88A15.59,15.59,0,0,1,845,17.93a19.32,19.32,0,0,1-1.42,7.71,21.46,21.46,0,0,1-3.46,5.66,58.21,58.21,0,0,1-5.5,5.4,69.54,69.54,0,0,0-5,4.93,18.65,18.65,0,0,0-3,4.77,15.53,15.53,0,0,0-1.26,6.45h-5.45A18.87,18.87,0,0,1,821.25,45.14Zm-1.78,28a4.3,4.3,0,0,1,3-7.34A4.27,4.27,0,0,1,825.65,67a4.3,4.3,0,0,1,0,6.08,4.27,4.27,0,0,1-3.14,1.26A4.12,4.12,0,0,1,819.47,73.09Z"/></g></g></svg>