<svg xmlns="http://www.w3.org/2000/svg" viewBox="0 0 1231.5 132.96"><defs><style>.cls-1{fill:#b281cb;}.cls-2{fill:#64c9bb;}</style></defs><title>how_1</title><g id="Layer_2" data-name="Layer 2"><g id="Layer_2-2" data-name="Layer 2"><path class="cls-1" d="M11.16,46.56a40.91,40.91,0,0,0,.6-5.4,7,7,0,0,0-1.56-5q-1.56-1.62-5.28-1.62H3.72l.6-3.6h14.4q4.8,0,6.84,1.8t2,6.24a35.31,35.31,0,0,1-.84,7.56l-3.48,19.8h32.4L61.92,31h15.6L66.24,94.56a27.52,27.52,0,0,0-.48,5.16,7.41,7.41,0,0,0,1.56,5.1q1.56,1.74,5.28,1.74h1.2l-.6,3.6H58.8q-4.8,0-6.84-1.86t-2-6.42a45.72,45.72,0,0,1,.72-7.32l4.08-22.8H22.32l-6.72,38.4H0Z"/><path class="cls-2" d="M82.2,104.94q-6.36-6.42-6.36-16.86a35.37,35.37,0,0,1,4.5-17.22A35.92,35.92,0,0,1,92.76,57.6a32.18,32.18,0,0,1,17.64-5q11.52,0,17.88,6.42t6.36,16.86a35.37,35.37,0,0,1-4.5,17.22,35.92,35.92,0,0,1-12.42,13.26,32.18,32.18,0,0,1-17.64,5Q88.56,111.36,82.2,104.94Zm28.8-4.68a39.43,39.43,0,0,0,5.82-13.56,61.91,61.91,0,0,0,1.86-14.1q0-7-2.28-10.8a7.55,7.55,0,0,0-7-3.84q-6,0-10,5.7a39.43,39.43,0,0,0-5.82,13.56,61.91,61.91,0,0,0-1.86,14.1q0,7,2.28,10.8a7.55,7.55,0,0,0,7,3.84Q107,106,111,100.26Z"/><path class="cls-2" d="M141.6,67.56q-1.8-6.72-3.78-9.48a6.79,6.79,0,0,0-5.22-3l.48-2.28,5.76-.24q7.92,0,12.42,3.24T158,67.56l6.12,22.92,11.52-19.2-1.08-3.72q-1.8-6.48-3.78-9.36a6.36,6.36,0,0,0-4.62-3.12l.48-2.28,4.56-.24q8.28,0,13.2,3.3t7.2,11.7l6.84,24.12,21.24-37.92h6.36l-32.16,57.6H188.4l-9.72-33.72-19.8,33.72h-5.4Z"/><path class="cls-2" d="M250.86,108.06q-3.78-3.3-3.78-9.78,0-1,1.38-9.42t5.1-29.7h-7.2l1-5.4h7.2L256.44,43l7.32-7.2h9.6l-3.24,18h13.2l-1,5.4h-13.2q-6.84,38.28-6.84,40.68,0,3.36,1.26,4.74a4.71,4.71,0,0,0,3.66,1.38,16.35,16.35,0,0,0,7-1.56,26.5,26.5,0,0,0,3-1.68l1.08,3.36a24.32,24.32,0,0,1-4.2,2.64,28,28,0,0,1-12.24,2.64Q254.64,111.36,250.86,108.06Z"/><path class="cls-2" d="M289.08,46.56a40.91,40.91,0,0,0,.6-5.4,7,7,0,0,0-1.56-5q-1.56-1.62-5.28-1.62h-1.2l.6-3.6h14.4q4.8,0,6.84,1.8t2,6.24a35.31,35.31,0,0,1-.84,7.56l-1.92,10.56q1.8-1.08,4.08-2.28a25.18,25.18,0,0,1,10-2.28q8.52,0,14,3.72t5.46,12.6a82.67,82.67,0,0,1-1.14,9q-1.14,7.2-5.58,32.28h-15.6q3.84-21.84,5.28-30.66t1.44-10.14q0-5.64-2.34-8.22a7.94,7.94,0,0,0-6.18-2.58,14.8,14.8,0,0,0-7.2,2.16,23.08,23.08,0,0,0-3.12,2l-8.28,47.4h-15.6Z"/><path class="cls-2" d="M344.4,105q-6.12-6.36-6.12-16.68a38.29,38.29,0,0,1,4.14-17.46A33.91,33.91,0,0,1,354.18,57.6a30.92,30.92,0,0,1,17.46-5q10.68,0,16.56,3.9a12.23,12.23,0,0,1,5.88,10.74q0,9.6-8,14.28T367,86.16h-12.6a35.69,35.69,0,0,0-.72,6.72q0,6.48,2.76,9.78a9.47,9.47,0,0,0,7.68,3.3,19.28,19.28,0,0,0,10.08-2.58A40.51,40.51,0,0,0,382.92,96l3.24,2.76a41.43,41.43,0,0,1-10.26,9q-5.82,3.6-14.58,3.6Q350.52,111.36,344.4,105Zm23.52-24.24q4.44,0,7.2-4.44a17.85,17.85,0,0,0,2.76-9.6q0-4.32-2.1-6.54a6.76,6.76,0,0,0-5.1-2.22q-11.52,0-15.36,22.8Z"/><path class="cls-2" d="M432.44,56.28q2.43-15.14,2.43-16.49a7.42,7.42,0,0,0-1.5-5.1c-1-1.11-2.7-1.66-5.08-1.66h-1.15l.57-3.69h31.16q13.26,0,22,3.5t8.77,14a19.1,19.1,0,0,1-5.49,13.72,29.91,29.91,0,0,1-13.78,8.06Q487,70.43,487,83.83q0,14.15-11,20.42t-27.06,6.27H423.56Q430,71.42,432.44,56.28ZM448,105.6a26.9,26.9,0,0,0,11.19-2.33,19.59,19.59,0,0,0,8.37-7.08,20.21,20.21,0,0,0,3.17-11.5q0-13-17.19-13H444.9l-5.42,32.72a6.63,6.63,0,0,0,2.19.62,24.68,24.68,0,0,0,5.77.61Zm6.46-39.48a20,20,0,0,0,9.64-2.34,17.8,17.8,0,0,0,6.92-6.7,19.75,19.75,0,0,0,2.6-10.28q0-6.63-4.45-9.59a19.67,19.67,0,0,0-11.13-3,19,19,0,0,0-5,.49l-2.08.37-5.19,31Z"/><path class="cls-2" d="M542,58.08a9.91,9.91,0,0,1,.9,2.28l-7,4.68a8.53,8.53,0,0,0-7.44-4.68q-7.08,0-11.4,3.72a9.94,9.94,0,0,0-.12,1.8q0,.6-.06,1.8a11.25,11.25,0,0,1-.3,2.16l-7.08,40.32h-15.6q4.92-29,5.52-32.64,2.16-13,2.16-13.68,0-3.36-1.5-4.92t-5.22-1.56h-1.2l.6-3.6h11.88a15.07,15.07,0,0,1,6.24,1,6.12,6.12,0,0,1,3.12,3.42,26.43,26.43,0,0,1,16.08-5.64q5.16,0,8.16,2.4A9.73,9.73,0,0,1,542,58.08Z"/><path class="cls-2" d="M541.21,105.36q-5.28-6-5.28-15.6a42.81,42.81,0,0,1,3.78-17.28A36.53,36.53,0,0,1,550.63,58.2a25.86,25.86,0,0,1,16.5-5.64q6.24,0,9.84,3.36a12.68,12.68,0,0,1,2.76,3.24h.6l5.16-5.4h10.2l-7.8,44.4-2,12h-10.2l-3.36-5.4h-.6a16.07,16.07,0,0,1-3.84,3.36,18.56,18.56,0,0,1-11,3.24Q546.49,111.36,541.21,105.36Zm23.52-.42a22,22,0,0,0,4.2-2.82,18.61,18.61,0,0,0,3.36-4l5.76-32.4a12.61,12.61,0,0,0-2-3.84,9,9,0,0,0-7.44-4q-5.76,0-9.54,6.18a45.38,45.38,0,0,0-5.52,14.46,71,71,0,0,0-1.74,14.28q0,13.08,8.4,13.08A10.05,10.05,0,0,0,564.73,104.94Z"/><path class="cls-2" d="M603.37,69.36A40.91,40.91,0,0,0,604,64a7,7,0,0,0-1.56-5q-1.57-1.62-5.28-1.62h-1.2l.6-3.6h14.4q4.79,0,6.84,1.8t2,6.24a56.85,56.85,0,0,1-.84,7.56l-7.08,40.8h-15.6Zm6.12-24.12a7.19,7.19,0,0,1-1.92-5.16A9,9,0,0,1,609.79,34a7.16,7.16,0,0,1,5.7-2.58,7.39,7.39,0,0,1,5.64,2,7.27,7.27,0,0,1,1.92,5.16,9.49,9.49,0,0,1-2,6.24,7.25,7.25,0,0,1-5.94,2.4A7.36,7.36,0,0,1,609.49,45.24Z"/><path class="cls-2" d="M629.05,69.36a42.51,42.51,0,0,0,.6-5.64,6.74,6.74,0,0,0-1.5-4.74q-1.51-1.62-5.22-1.62h-1.2l.6-3.6h11.88a15.1,15.1,0,0,1,6.24,1,6.16,6.16,0,0,1,3.12,3.42q6.58-5.64,18.48-5.64,9.83,0,14.7,3.84t4.86,12a43.64,43.64,0,0,1-.6,6.24l-6.24,35.52h-15.6l6.24-35.64a29.16,29.16,0,0,0,.48-5.52q0-10.44-9.12-10.44a20.71,20.71,0,0,0-6.72,1,14.25,14.25,0,0,0-4.92,2.7,22.71,22.71,0,0,1-.24,6.36l-7.32,41.52H622Z"/><path class="cls-1" d="M692.89,130A13.67,13.67,0,0,0,702,123.9q3.35-5,5.4-16.74l8.4-48H708.6l1-5.4h7.21l.6-3.24q1.78-10.2,8.57-15.48t18.54-5.28a34.28,34.28,0,0,1,6.19.54,12.08,12.08,0,0,1,4.38,1.5A8.68,8.68,0,0,1,758.77,37l-5.52,4.2a11.44,11.44,0,0,0-3.73-4.44,9.32,9.32,0,0,0-5.39-1.56,8.5,8.5,0,0,0-7,3.48c-1.85,2.32-3.24,6.28-4.2,11.88l-.6,3.24H748l-1,5.4h-15.6l-8.4,48q-1.8,10.08-5.16,15.6a18.65,18.65,0,0,1-9.37,7.86q-6,2.34-16.07,2.34Z"/><path class="cls-1" d="M748.86,107.7q-4.62-3.66-4.62-11.82a64.3,64.3,0,0,1,.9-7.44q.9-5.76,3.18-19.08a40.91,40.91,0,0,0,.6-5.4,7,7,0,0,0-1.56-5q-1.56-1.62-5.28-1.62h-1.2l.6-3.6h14.4q4.8,0,6.84,1.8t2,6.24a35.31,35.31,0,0,1-.84,7.56Q761.64,82.92,760.68,89a70.67,70.67,0,0,0-1,7.5q0,5.16,2,7.32t6.06,2.16a10.05,10.05,0,0,0,4.56-1,22,22,0,0,0,4.2-2.82,18.61,18.61,0,0,0,3.36-4l7.8-44.4h15.6l-9.84,56.4h-10.2l-3.36-5.4h-.6a23.73,23.73,0,0,1-4.44,3.36,21.43,21.43,0,0,1-11.64,3.24Q753.48,111.36,748.86,107.7Z"/><path class="cls-1" d="M810.84,69.36a40.85,40.85,0,0,0,.6-5.64,6.74,6.74,0,0,0-1.5-4.74q-1.5-1.62-5.22-1.62h-1.2l.6-3.6H816a15.07,15.07,0,0,1,6.24,1,6.12,6.12,0,0,1,3.12,3.42q6.6-5.64,18.48-5.64,9.84,0,14.7,3.84t4.86,12a42.22,42.22,0,0,1-.6,6.24l-6.24,35.52H841l6.24-35.64a28.36,28.36,0,0,0,.48-5.52q0-10.44-9.12-10.44a20.79,20.79,0,0,0-6.72,1,14.43,14.43,0,0,0-4.92,2.7,18.14,18.14,0,0,1,.12,2.4,20.23,20.23,0,0,1-.36,4l-7.32,41.52h-15.6Z"/><path class="cls-2" d="M871.56,105.06q-6.12-6.3-6.12-16.5a38.22,38.22,0,0,1,4.32-18.06A33.2,33.2,0,0,1,900,52.56a47.32,47.32,0,0,1,13.8,1.74q5.64,1.74,5.64,7.86a69.56,69.56,0,0,1-1.56,11.4h-3.6a25.3,25.3,0,0,0,.12-2.88q0-6.36-3.48-9.54T900.84,58a13.59,13.59,0,0,0-11.1,5.52,35.65,35.65,0,0,0-6.42,13.26,57.32,57.32,0,0,0-2,14.58Q881.28,106,893,106a19.28,19.28,0,0,0,10.08-2.58A40.51,40.51,0,0,0,911.88,96l3.24,2.76a41.19,41.19,0,0,1-10.38,9.06q-5.82,3.54-15.06,3.54Q877.68,111.36,871.56,105.06Z"/><path class="cls-2" d="M925.74,108.06q-3.78-3.3-3.78-9.78,0-1,1.38-9.42t5.1-29.7h-7.2l1-5.4h7.2L931.32,43l7.32-7.2h9.6l-3.24,18h13.2l-1,5.4H944q-6.84,38.28-6.84,40.68,0,3.36,1.26,4.74a4.71,4.71,0,0,0,3.66,1.38,16.35,16.35,0,0,0,7-1.56,26.5,26.5,0,0,0,3-1.68l1.08,3.36a24.32,24.32,0,0,1-4.2,2.64,28,28,0,0,1-12.24,2.64Q929.52,111.36,925.74,108.06Z"/><path class="cls-2" d="M962.4,69.36A40.91,40.91,0,0,0,963,64a7,7,0,0,0-1.56-5q-1.56-1.62-5.28-1.62H955l.6-3.6H970q4.8,0,6.84,1.8t2,6.24a55.17,55.17,0,0,1-.84,7.56l-7.08,40.8h-15.6Zm6.12-24.12a7.23,7.23,0,0,1-1.92-5.16A9,9,0,0,1,968.82,34a7.18,7.18,0,0,1,5.7-2.58,7.38,7.38,0,0,1,5.64,2,7.23,7.23,0,0,1,1.92,5.16,9.49,9.49,0,0,1-2,6.24,7.25,7.25,0,0,1-5.94,2.4A7.38,7.38,0,0,1,968.52,45.24Z"/><path class="cls-2" d="M986.4,104.94Q980,98.52,980,88.08a35.37,35.37,0,0,1,4.5-17.22A35.92,35.92,0,0,1,997,57.6a32.18,32.18,0,0,1,17.64-5q11.52,0,17.88,6.42t6.36,16.86a35.37,35.37,0,0,1-4.5,17.22,35.92,35.92,0,0,1-12.42,13.26,32.18,32.18,0,0,1-17.64,5Q992.76,111.36,986.4,104.94Zm28.8-4.68A39.43,39.43,0,0,0,1021,86.7a61.91,61.91,0,0,0,1.86-14.1q0-7-2.28-10.8a7.55,7.55,0,0,0-7-3.84q-6,0-10,5.7a39.43,39.43,0,0,0-5.82,13.56A61.91,61.91,0,0,0,996,91.32q0,7,2.28,10.8a7.55,7.55,0,0,0,7,3.84Q1011.24,106,1015.2,100.26Z"/><path class="cls-2" d="M1047.72,69.36a40.85,40.85,0,0,0,.6-5.64,6.74,6.74,0,0,0-1.5-4.74q-1.5-1.62-5.22-1.62h-1.2l.6-3.6h11.88a15.07,15.07,0,0,1,6.24,1,6.12,6.12,0,0,1,3.12,3.42q6.6-5.64,18.48-5.64,9.84,0,14.7,3.84t4.86,12a42.22,42.22,0,0,1-.6,6.24l-6.24,35.52h-15.6l6.24-35.64a28.36,28.36,0,0,0,.48-5.52q0-10.44-9.12-10.44a20.79,20.79,0,0,0-6.72,1,14.43,14.43,0,0,0-4.92,2.7,18.14,18.14,0,0,1,.12,2.4,20.23,20.23,0,0,1-.36,4l-7.32,41.52h-15.6Z"/><path class="cls-2" d="M1106.82,109.44q-5.94-1.92-5.94-8.28a55.88,55.88,0,0,1,1.08-9h4.2v.36q0,6.12,3.24,9.78t10,3.66a20.16,20.16,0,0,0,9.36-2.16,7.28,7.28,0,0,0,4.2-7,5.85,5.85,0,0,0-2.34-4.68,34.35,34.35,0,0,0-6.9-4.08l-5.76-2.64a32,32,0,0,1-9.42-6.36,11.14,11.14,0,0,1-3.18-7.92,14.87,14.87,0,0,1,3.78-10.32,22.71,22.71,0,0,1,9.72-6.24,37.61,37.61,0,0,1,12.3-2,45.59,45.59,0,0,1,14,1.92q5.94,1.92,5.94,8.28a55.88,55.88,0,0,1-1.08,9h-4.2V71.4q0-6.12-3.24-9.78t-10-3.66a14.12,14.12,0,0,0-8.16,2.46,8,8,0,0,0-3.6,7,5.79,5.79,0,0,0,1.74,4.26,17.32,17.32,0,0,0,5.34,3.3l6.72,3q7.2,3.12,10.5,6.42a11,11,0,0,1,3.3,8.1,14.75,14.75,0,0,1-4.08,10.62,24,24,0,0,1-10.44,6.24,43.75,43.75,0,0,1-13.08,2A45.59,45.59,0,0,1,1106.82,109.44Z"/><path class="cls-1" d="M1183.46,72.25a160,160,0,0,1,9.64-13.61q5.36-6.8,8.43-11.58a52.17,52.17,0,0,0,5.26-11A40.48,40.48,0,0,0,1209,22.52q0-8.26-3.48-11.75t-10-3.48q-21.22,0-32.24,30.46h-4.86l.33-1.3q1.93-9.89,3.48-14.9a20.92,20.92,0,0,1,4.78-8.43q5.67-5.5,15.31-9.31A52.29,52.29,0,0,1,1201.69,0q13.44,0,21.63,6.56T1231.5,25A32.62,32.62,0,0,1,1228.66,39a37.2,37.2,0,0,1-7.05,10.29,149.68,149.68,0,0,1-11.5,10.29A132.25,132.25,0,0,0,1196.75,72a36.82,36.82,0,0,0-7.54,12.88h-11A45.72,45.72,0,0,1,1183.46,72.25Zm-10.69,38.15a7,7,0,0,1-2.19-5.42,12.61,12.61,0,0,1,3.24-8.67,11,11,0,0,1,8.59-3.65q4.21,0,6.24,2a7.55,7.55,0,0,1,2,5.59,12.24,12.24,0,0,1-3.32,8.5,11,11,0,0,1-8.5,3.65A8.61,8.61,0,0,1,1172.77,110.4Z"/></g></g></svg>