<svg xmlns="http://www.w3.org/2000/svg" viewBox="0 0 422.03 49.28"><defs><style>.cls-1{fill:#b28cc7;}.cls-2{fill:#3bc6b1;}</style></defs><title>learn</title><g id="Layer_2" data-name="Layer 2"><g id="Layer_12" data-name="Layer 12"><path class="cls-1" d="M0,0H3.57V45.78H31.78V49H0Z"/><path class="cls-1" d="M70.07,31.57H38.64a15.29,15.29,0,0,0,2.17,7.6,13.89,13.89,0,0,0,5.5,5.14,17.57,17.57,0,0,0,14.42.52A12.8,12.8,0,0,0,65.8,41l2,2.31a15.7,15.7,0,0,1-6,4.41A19.65,19.65,0,0,1,54,49.28a19.62,19.62,0,0,1-9.73-2.38,17.24,17.24,0,0,1-6.68-6.58,18.9,18.9,0,0,1-2.42-9.59,19.86,19.86,0,0,1,2.28-9.56,16.75,16.75,0,0,1,6.26-6.61,18.1,18.1,0,0,1,17.89,0,16.7,16.7,0,0,1,6.23,6.54,19.73,19.73,0,0,1,2.27,9.52ZM45.78,17a13.13,13.13,0,0,0-4.93,4.83,15.79,15.79,0,0,0-2.14,7h28a14.66,14.66,0,0,0-2.1-7,13.59,13.59,0,0,0-11.9-6.58A14,14,0,0,0,45.78,17Z"/><path class="cls-1" d="M102.69,15.64q3.63,3.48,3.64,10.19V49H103V42.49a12.23,12.23,0,0,1-5.11,5,17.05,17.05,0,0,1-8,1.78q-6.09,0-9.63-2.87a9.27,9.27,0,0,1-3.53-7.56,9.35,9.35,0,0,1,3.25-7.39q3.25-2.82,10.4-2.83h12.53V25.69q0-5.11-2.77-7.77c-1.84-1.77-4.54-2.66-8.08-2.66a19.52,19.52,0,0,0-7,1.26,17.52,17.52,0,0,0-5.63,3.36l-1.75-2.52a19.65,19.65,0,0,1,6.58-3.82,23.88,23.88,0,0,1,8.05-1.36Q99.06,12.18,102.69,15.64ZM98,44.31a12.78,12.78,0,0,0,4.8-6.09V31.36H90.37q-5.4,0-7.81,2a6.56,6.56,0,0,0-2.41,5.39,6.74,6.74,0,0,0,2.66,5.63q2.66,2.07,7.49,2.07A13.72,13.72,0,0,0,98,44.31Z"/><path class="cls-1" d="M129.36,14.32A16.55,16.55,0,0,1,138,12.18v3.43l-.84-.07q-6.09,0-9.52,3.82T124.25,30V49h-3.5V12.46h3.36v8A12.62,12.62,0,0,1,129.36,14.32Z"/><path class="cls-1" d="M176.4,16.17q4,4,4,11.48V49h-3.5V27.93q0-6.16-3.12-9.38c-2.07-2.15-5-3.22-8.71-3.22q-6.44,0-10.15,3.85T151.2,29.54V49h-3.5V12.46h3.36v7.91a13.93,13.93,0,0,1,5.63-6,17.34,17.34,0,0,1,8.86-2.17Q172.41,12.18,176.4,16.17Z"/><path class="cls-2" d="M260.26,49l-.07-41.93L239.68,42.49h-1.75L217.42,7.21V49h-3.5V0h3l21.91,37.87L260.75,0h2.94l.07,49Z"/><path class="cls-2" d="M284.65,46.9a17.17,17.17,0,0,1-6.54-6.61,19.16,19.16,0,0,1-2.38-9.56,19.16,19.16,0,0,1,2.38-9.56,17.17,17.17,0,0,1,6.54-6.61,19.54,19.54,0,0,1,18.69,0,17.19,17.19,0,0,1,6.55,6.61,19.26,19.26,0,0,1,2.38,9.56,19.26,19.26,0,0,1-2.38,9.56,17.19,17.19,0,0,1-6.55,6.61,19.54,19.54,0,0,1-18.69,0Zm16.87-2.73a14.07,14.07,0,0,0,5.25-5.46,16.2,16.2,0,0,0,1.93-8,16.2,16.2,0,0,0-1.93-8,14.07,14.07,0,0,0-5.25-5.46,15.43,15.43,0,0,0-15,0,14.21,14.21,0,0,0-5.25,5.46,16.3,16.3,0,0,0-1.92,8,16.3,16.3,0,0,0,1.92,8,14.21,14.21,0,0,0,5.25,5.46,15.43,15.43,0,0,0,15,0Z"/><path class="cls-2" d="M331.73,14.32a16.55,16.55,0,0,1,8.68-2.14v3.43l-.84-.07q-6.09,0-9.52,3.82T326.62,30V49h-3.5V12.46h3.36v8A12.62,12.62,0,0,1,331.73,14.32Z"/><path class="cls-2" d="M380.59,31.57H349.16a15.19,15.19,0,0,0,2.17,7.6,13.86,13.86,0,0,0,5.49,5.14,17.57,17.57,0,0,0,14.42.52A12.9,12.9,0,0,0,376.32,41l2,2.31a15.66,15.66,0,0,1-6,4.41,20.83,20.83,0,0,1-17.53-.84,17.27,17.27,0,0,1-6.69-6.58,18.9,18.9,0,0,1-2.41-9.59A20,20,0,0,1,348,21.17a16.84,16.84,0,0,1,6.27-6.61,18.08,18.08,0,0,1,17.88,0,16.56,16.56,0,0,1,6.23,6.54,19.62,19.62,0,0,1,2.28,9.52ZM356.3,17a13.15,13.15,0,0,0-4.94,4.83,15.78,15.78,0,0,0-2.13,7h28a14.66,14.66,0,0,0-2.1-7,13.59,13.59,0,0,0-11.9-6.58A14,14,0,0,0,356.3,17Z"/><path class="cls-2" d="M389,48.41a2.94,2.94,0,0,1-.87-2.14,2.8,2.8,0,0,1,.87-2.1,3,3,0,0,1,4.13,0,2.81,2.81,0,0,1,.88,2.1,2.94,2.94,0,0,1-.88,2.14,2.89,2.89,0,0,1-4.13,0Z"/><path class="cls-2" d="M403,48.41a2.94,2.94,0,0,1-.87-2.14,2.8,2.8,0,0,1,.87-2.1,3,3,0,0,1,4.13,0,2.81,2.81,0,0,1,.88,2.1,2.94,2.94,0,0,1-.88,2.14,2.89,2.89,0,0,1-4.13,0Z"/><path class="cls-2" d="M417,48.41a2.94,2.94,0,0,1-.87-2.14,2.8,2.8,0,0,1,.87-2.1,3,3,0,0,1,4.13,0,2.81,2.81,0,0,1,.88,2.1,2.94,2.94,0,0,1-.88,2.14,2.89,2.89,0,0,1-4.13,0Z"/></g></g></svg>