<svg xmlns="http://www.w3.org/2000/svg" viewBox="0 0 603.34 253.24"><defs><style>.cls-1{fill:#5ab6a9;}</style></defs><title>menu</title><g id="Layer_2" data-name="Layer 2"><g id="Layer_1-2" data-name="Layer 1"><path class="cls-1" d="M584.68,128.55c10.92,5.47,20.17,18.79,13,30.81-7.74,13-25.38,18.35-38.67,23.25s-27.23,9.65-38.94,18c-11.07,7.92-21.4,16.87-33.64,23-14,7.08-27.76,12.17-43.66,12.87-14.78.66-29.33-1.31-42.71-7.8-10.36-5-19.55-12-29.35-18a37.63,37.63,0,0,0-6.1-3.48c-3.37-1.23-7.57-1.46-11.13-1.83A54.59,54.59,0,0,0,333,207.18c-12.44,3.4-22.91,10.83-34,17.2-11.5,6.6-23.32,12.73-35.78,17.31a131.8,131.8,0,0,1-42.31,8.41c-12.73.3-27.65-.16-36.73-10.41a38.85,38.85,0,0,1-7-12.47c-1.26-3.42-1.71-7.44-4.53-9.94-7.21-6.37-18.07-6.13-27-4.89-22.08,3.06-60.82,23.16-70.9-8.8-3-9.43-5.34-18.14-15-22.93C46.45,174,30,178.52,16.31,172.34c-4-1.79-11.76-5.62-13.15-10.11-.59-1.89,0-4.87,0-6.84V127.12a1.5,1.5,0,0,0-3,0V157.3c0,1.64-.37,3.75,0,5.36,1.08,4.35,6.87,8,10.47,10.11C17,176.43,23.77,178,31,178.85c14.34,1.73,32.44.49,38.43,16.84,1.87,5.09,2.56,10.52,5.22,15.33a24.59,24.59,0,0,0,12.43,10.89c12.46,5,26.48,2.14,38.81-1.71,11.35-3.54,24.41-7.38,36.33-4.74a19.34,19.34,0,0,1,7.65,3.39c2.2,1.7,2.66,3.89,3.51,6.41a58.61,58.61,0,0,0,5.13,11.7c5.45,9,14.48,13.8,24.72,15.27,14.61,2.09,29.92.8,44.23-2.61C274,243.31,297,228.9,320.29,215.41c13.77-8,34.28-11,48.37-2.44,10.61,6.42,20.49,14.06,31.82,19.24,12.57,5.74,26,7.69,39.75,7.4A101,101,0,0,0,461.38,237c7.63-1.82,14.11-5,21.13-8.2,13.23-6.09,24.31-14.65,36-23.27,13.32-9.85,28.55-15.22,43.94-21,18.82-7,52.92-21.85,36.66-47.53A31.46,31.46,0,0,0,586.2,126c-1.72-.86-3.24,1.73-1.52,2.6Z"/><path class="cls-1" d="M569,128.74c11.83,6.82,16.5,21.88,6.46,32.42-9.69,10.17-24.6,14.72-37.4,19.49-12.61,4.7-24.22,9.87-35.32,17.52-11.45,7.9-22.93,15.13-34.92,22.14-23.2,13.56-55.3,11.83-78.54-1-9.41-5.18-17.78-12.43-27.44-17.11-10.32-5-23.75-3-34.32-.11-10.89,3-20.78,10.45-30.63,15.89-10.79,6-21.78,11.67-33.37,16a122,122,0,0,1-38.39,7.93c-11.9.38-26.15.08-34.83-9.31A33.86,33.86,0,0,1,184,222.11c-1.36-3.35-1.85-7.81-4.27-10.51-6-6.73-17.41-6.45-25.49-5.41-10.65,1.37-20.49,5.56-31,7.63-13.3,2.64-30.11,1.52-35.55-13.13-3.68-9.92-5.39-19.44-16.33-23.82-6.3-2.53-13.42-2.55-20.09-3.21-8.13-.8-15.78-2.59-22.63-7.28-2.24-1.53-6.5-4.42-7.5-7a16.17,16.17,0,0,1-.39-4.17c-.28-3.8-.36-7.64-.89-11.4-.74-5.34,0-11.49-1-16.95-.36-1.9-3.25-1.1-2.89.79,1,5.25.22,11.27,1,16.59s-.81,13.19,2.38,17.65c6.75,9.44,19.36,13.37,30.29,14.56,7.54.83,16,.49,22.83,4.15,5.52,2.94,8.49,8.09,10.27,13.88,3.22,10.53,7,18.77,18.46,22.09,12,3.48,24.39,0,36-3.5,10.54-3.17,23.59-6.86,34.41-3,2.47.87,5.41,2.31,6.72,4.69.94,1.71,1.29,4,2,5.86a46.05,46.05,0,0,0,5.43,11c5.46,7.69,13.87,11.43,23.05,12.58a112.12,112.12,0,0,0,40.79-2.74c24.44-6.07,46.57-19.25,68.15-31.8a56.83,56.83,0,0,1,20.27-7c7.43-1.05,17.51-.72,24.13,3.13,9.94,5.78,19.06,12.91,29.39,18.05,11.28,5.61,23.07,7.91,35.59,8.35,13,.46,27-.73,38.62-7.07a403.77,403.77,0,0,0,37.22-23.44C515.47,193,528.68,187.37,543,182c17.84-6.69,51.06-19.55,38.57-44.75-2.42-4.88-6.4-8.41-11.06-11.1a1.5,1.5,0,0,0-1.51,2.59Z"/><path class="cls-1" d="M553.27,128.93c5.59,3.79,8.86,9.16,8.86,16,0,7.1-3.56,12.14-8.91,16.44-10.37,8.31-23.62,12.55-35.84,17.3A149.79,149.79,0,0,0,485.8,195.5a345.43,345.43,0,0,1-32.22,20.05c-12,6.48-26.37,6.85-39.62,6a74.29,74.29,0,0,1-33-10.34c-4.21-2.46-8.27-5.17-12.34-7.85-3.87-2.54-8-5.91-12.3-7.56-10.37-3.94-22.9-2.3-33.12,1-9.78,3.18-18.83,9.93-27.81,14.87-9.92,5.47-20,10.67-30.67,14.61a115,115,0,0,1-35.18,7.41c-11.33.46-25.17.3-33.5-8.62a31.58,31.58,0,0,1-5.81-9.49c-1.22-2.93-1.7-7-3.48-9.59-4.48-6.55-15.37-6.8-22.28-6.18-9.78.89-18.76,4.33-28.2,6.69-11.64,2.9-29,4.05-35.46-8.62-2.19-4.28-2.76-9.19-4.87-13.51a21.25,21.25,0,0,0-10.41-10.14c-5.17-2.31-11-2.57-16.57-3.2-8.45-1-15.65-2.9-22.64-8-2.33-1.69-5.72-3.8-7.2-6.35a25.16,25.16,0,0,1-.63-2.85c-.65-3.57-.75-7.4-1.88-10.85-1.36-4.14-.51-10.89-2-16-.54-1.85-3.43-1.07-2.89.79,1.51,5.16.58,11,2.1,16.19,1.68,5.7.43,12.2,4.85,16.63,8.6,8.64,19.28,12.17,31.11,13.44,6.81.74,14.28,1.2,19.53,6.15,4.13,3.9,5.26,9.09,7,14.26,3.22,9.81,10.59,15.28,20.83,16.56,11.61,1.46,22.24-2.64,33.24-5.57,9.34-2.49,22.35-5.66,31.21,0,3.79,2.4,4.19,7,5.79,10.9a37.22,37.22,0,0,0,5.24,9.27c6.18,7.67,15.5,10.13,25,10.83A109.18,109.18,0,0,0,253.74,233c22.85-6.11,42.92-18.76,63.38-30.15,11.15-6.21,28.21-9.26,40-3.14,9.42,4.9,17.64,11.88,27.12,16.75,20.07,10.3,47.82,12.28,68.59,2.85,13.69-6.22,26.15-15.47,38.52-23.93,13-8.91,27.44-13.67,41.88-19.7,10.68-4.46,24.45-10.31,30-21.34,5.1-10.18.53-21.9-8.4-27.95-1.6-1.09-3.1,1.51-1.51,2.59Z"/><path class="cls-1" d="M537.26,128.89c10.82,8.89,6.24,22.67-3.58,30.06-10,7.54-22.18,11.79-33.67,16.44a147.83,147.83,0,0,0-28.71,15.75,266.66,266.66,0,0,1-29.05,17.8c-11.5,5.89-25.36,6.11-37.95,5.07a69.5,69.5,0,0,1-29.85-9.94c-3.83-2.27-7.53-4.75-11.25-7.19-3.49-2.3-7.32-5.41-11.24-6.9-9.56-3.64-20.95-2.13-30.42.74-9.31,2.84-17.88,9.25-26.37,13.94a223.07,223.07,0,0,1-27.82,13.41,109.46,109.46,0,0,1-31.75,7.31c-10.5.7-23.76,1-32.22-6.29a25.72,25.72,0,0,1-6.14-8.32c-1.62-3.33-2.15-7.32-3.87-10.53-3-5.63-11.81-6.75-17.45-6.69-8.33.07-16.56,2.3-24.46,4.76-10.81,3.36-26.48,6.94-35.76-1.92-6.77-6.47-5.34-17.17-13.38-23.07-4.5-3.3-10-4-15.38-4.79-6.6-.91-12.63-1.93-18.36-5.55-4-2.55-10.5-6-12.28-10.54-1.23-3.11-1.36-6.62-2.8-9.68-2.3-4.89-1.32-10.48-3.15-15.52-.65-1.81-3.55-1-2.89.79,1.77,4.89.52,10.53,2.79,15.33a50,50,0,0,1,2.65,8.11c1,3.69,1.93,5,5,7.4a75.22,75.22,0,0,0,12.05,8.38c4.69,2.44,9.8,3.3,15,4,6.51.88,13.58,1.53,18.19,6.8,3.39,3.88,4.11,8.9,6,13.51,8.5,20.89,35,11.48,50.81,7.43,8.42-2.16,21.17-5.15,28.81.71,3,2.3,3.54,7,5,10.4a32.79,32.79,0,0,0,5,8.46c5.67,6.73,14,9,22.45,9.7a102.25,102.25,0,0,0,33.82-3.05c20.81-5.38,39.86-16.54,58.26-27.32,10.69-6.27,26.51-10.07,38.41-4.69,8.8,4,16.36,10.87,24.88,15.46,18.61,10,44,12.39,63.78,4.41,12.55-5.06,24.14-13.59,35.24-21.21,11.76-8.06,24.28-13,37.35-18.44,10.49-4.41,23.18-9.67,30-19.34a20.27,20.27,0,0,0-3.46-27.33c-1.48-1.21-3.61.9-2.12,2.13Z"/><path class="cls-1" d="M521.55,129.08c10.06,10.5-.65,23.39-10.06,29.3-9.17,5.76-19.28,9.73-29.21,13.94C472,176.68,463.21,182.5,454,188.66c-8.63,5.76-18.11,12.33-28,15.57-19.57,6.38-41.92,2.57-59.17-8-6.51-4-13.68-10.89-21.2-12.55a49.51,49.51,0,0,0-27.88,1.65c-8,2.81-15.37,8.21-22.76,12.3a213.61,213.61,0,0,1-25.69,12.49,103.54,103.54,0,0,1-29.26,7c-9.45.74-21.3,1.16-29.43-4.5-5.85-4.07-8.21-10.6-10.39-17.07-1.93-5.71-8.57-7.58-14.08-8-17.9-1.31-35.83,12.69-53.39,6-10.33-4-8.6-14.76-15.44-21.65-7.8-7.86-20.48-5.13-29.46-11-2.42-1.58-4.63-3.44-7-5.11-1.9-1.35-4.57-2.6-6.14-4.32-2.18-2.39-2.41-6.3-4.15-9a15,15,0,0,1-2.8-6.28c-.55-2.82-.55-6.12-1.64-8.79-.72-1.77-3.62-1-2.89.79,1.87,4.6.68,10.33,3.56,14.58s3.81,9.66,8.25,12.69c4.69,3.2,9.13,7.23,14.22,9.77,4.51,2.26,9.51,2.83,14.4,3.75,6,1.14,11.31,3.22,14.28,8.91,1.83,3.49,2.4,7.51,4.4,10.93,10.05,17.16,34.41,6.5,48.78,3.27,7.09-1.6,22.46-4.52,26.19,4.26,2.46,5.82,3.86,11.61,8.55,16.23,6,5.91,14.3,7.29,22.37,7.7a96.53,96.53,0,0,0,30.94-3.61c18.33-5.16,35.39-14.9,51.66-24.57C321,186.05,334.46,182.85,346,187c8.12,2.91,15.25,9.66,22.76,13.9,16.95,9.58,39.29,12.31,58,6.23,11.51-3.74,22.27-11.45,32.21-18.2,5.46-3.72,10.82-7.46,16.77-10.38s12.07-5.24,18.11-7.85c10.31-4.45,22.6-9.57,29.79-18.63,5.9-7.44,6.78-18.07,0-25.1-1.34-1.4-3.45.72-2.12,2.12Z"/><path class="cls-1" d="M505.61,129c7,10-3.76,20.78-11.79,25.83-8.6,5.41-18,9.48-27.26,13.6-8.83,3.93-16.59,8.9-24.62,14.22S425.18,194,416.05,197c-18,5.89-38.68,2.54-54.61-7.17-6-3.63-11.95-9.13-18.52-11.56-8-3-17.62-1.75-25.56.6-7.46,2.2-14.15,7.05-20.9,10.82a237.87,237.87,0,0,1-22.07,11.19,101.18,101.18,0,0,1-28,7.84c-9.11,1.05-20.53,1.69-28.8-2.9-6-3.32-8.74-9.48-10.81-15.69-1.72-5.17-5.77-7.44-11.13-8.29-15.62-2.48-29.66,7.83-45.12,6.73-6.31-.45-12.13-3-14.77-9-1.39-3.21-2.22-6.51-4.38-9.34-5.92-7.78-16.46-6.25-24.16-11.08-4.3-2.7-8-6.11-12.38-8.69-3.62-2.1-4.7-5.29-7.25-8.39-2-2.42-3.07-3.66-3.86-6.92-.63-2.59-.9-5.39-2-7.84-.78-1.77-3.36-.24-2.59,1.51,1.93,4.39,1.11,10,4.47,13.7,2.09,2.32,3.56,4.92,5.53,7.37,2.22,2.74,5.7,3.86,8.58,5.8,3.78,2.54,6.94,5.91,11.15,7.79s9.19,2.24,13.63,3.9c9.39,3.51,8,13.37,14.44,19.26,12.84,11.67,32.33.91,46.48-1.43,4.17-.69,8.63-1.1,12.8-.19,4.66,1,6.63,3.06,8.11,7.32,1.84,5.31,4.28,10.47,8.73,14.07,6.26,5.07,14.61,5.78,22.36,5.89a90.71,90.71,0,0,0,27.8-4.08c16.95-5.16,32.3-14.43,47.57-23.19,9.2-5.28,22.85-7.79,32.75-3,7.44,3.6,13.86,9.28,21.18,13.17,15.52,8.24,36.24,10.29,52.95,4.47,9.87-3.44,19.2-9.94,27.83-15.73,10-6.7,20.14-11.61,31-16.62,9.41-4.33,20.14-9,27.45-16.56,5.91-6.12,9.52-15.73,4.23-23.22-1.1-1.56-3.71-.07-2.59,1.51Z"/><path class="cls-1" d="M489.9,129.16c4.67,10.32-9.16,19.61-16.58,23.79-8.14,4.58-16.59,8.56-25,12.63-7.7,3.74-14.54,8.57-21.75,13.12-7.4,4.67-15.4,9.91-24,12-16.59,4-33.87.58-48.17-8.34-5-3.15-10.24-7.93-15.87-9.91-7.29-2.58-15.79-1.7-23,.38S302.07,179.35,295.6,183a221.4,221.4,0,0,1-20,10.19,94.93,94.93,0,0,1-25.06,7.22c-8.49,1.12-19.36,1.87-27.19-2.23-5.42-2.84-8.14-8-10.06-13.61-1.71-4.94-4.13-7.4-9.48-8.59-13.84-3.07-26.59,5.83-40.17,6-5.56.09-12-1.15-15.14-6.23-1.88-3-2.52-6.52-4.77-9.36-5.12-6.46-14.35-6.48-20.5-11.71A44.45,44.45,0,0,0,113,147.87c-3.63-1.71-5.61-4-8.57-6.61-2.58-2.28-3.75-3.36-4.83-6.87a49.43,49.43,0,0,0-2.19-7c-.83-1.75-3.42-.23-2.59,1.51,2,4.17,1.71,9.6,5.24,13,2.05,1.95,4.44,4,6.62,5.92,2.62,2.29,6.1,3,9,4.81,3.29,2.06,5.81,5.12,9.07,7.21,3.94,2.52,8.75,2.95,12.77,5.23,6.53,3.69,6.11,12.08,12,16.32,13.2,9.54,30.4-1.18,44.32-2.72,3.53-.39,7.37-.51,10.78.64,4.32,1.46,4.9,4.06,6.34,7.88,1.7,4.51,4,8.74,7.93,11.73,6.11,4.7,14.34,5.18,21.76,5.16A84.5,84.5,0,0,0,265.89,200c15.58-4.92,29.44-13.61,43.63-21.49,8.58-4.76,21.21-6.74,30.17-2,6.41,3.36,12.06,8.08,18.44,11.53A64.86,64.86,0,0,0,405,193.16c9.26-2.57,18-8.46,25.94-13.67a257.13,257.13,0,0,1,27.7-15.5c9-4.42,19.21-8.78,26.71-15.61,5.79-5.28,10.68-13,7.17-20.74-.79-1.75-3.38-.23-2.59,1.52Z"/><path class="cls-1" d="M474,129c1.86,8.68-9.44,15.62-15.83,19.18-7.39,4.1-15,7.87-22.49,11.79-6.86,3.6-13.24,7.69-19.77,11.82s-13.59,8.81-20.93,11c-14.88,4.44-31.66,1.73-44.8-6.2-5.07-3.06-10.09-7.7-15.63-9.82-6.23-2.38-13.9-1.85-20.18-.16s-11.52,5.12-17.14,8.27c-6,3.39-12.11,6.76-18.42,9.65-13.8,6.33-31.32,11.28-46.46,7.15-6.16-1.68-10-6-12.24-11.82-1.61-4.1-2-7-6.33-9-10.4-4.79-22.49,1.39-32.69,3.58-4.45,1-9.35,1.43-13.81.23-5.31-1.43-6.9-4.66-9.28-9.06-3.64-6.75-11-8.24-16.23-13.36a28.58,28.58,0,0,0-7.51-5.79c-3.59-1.72-7.29-2.64-10.73-4.74-3.75-2.29-6.16-3.28-7.84-7.5-.88-2.21-1.46-4.55-2.53-6.69-.86-1.73-3.45-.21-2.59,1.51,1.9,3.81,2.3,9.46,5.94,12.18a68.85,68.85,0,0,0,8,4.6c3.48,1.89,7.49,2.44,10.8,4.7,2.72,1.85,4.64,4.57,7.22,6.56,3.4,2.64,7.93,3.69,10.83,7,2.2,2.49,2.9,5.82,4.88,8.43a14.06,14.06,0,0,0,6.81,4.65c13.58,4.71,26.7-4.81,40.22-4.83,3,0,7.65.34,9.74,2.87,1.43,1.74,1.82,4.63,2.69,6.7,1.86,4.38,4.61,8.25,8.82,10.64,6,3.39,13.6,3.51,20.27,3.27a79.78,79.78,0,0,0,22.47-4.26c13.61-4.59,25.81-12.21,38.3-19.15,8.21-4.55,19.88-6.11,28.3-1.41,5.8,3.23,11,7.42,16.91,10.52a59.42,59.42,0,0,0,43,4.16c7.9-2.35,15.42-7.32,22.32-11.73,8.36-5.34,16.8-10.12,25.54-14.83,8.14-4.4,17.27-7.91,24.44-13.88,5.2-4.35,10.37-9.78,8.82-17-.41-1.88-3.3-1.09-2.9.8Z"/><path class="cls-1" d="M458.28,128.78c-.21,7.23-8.3,11.53-13.94,14.5-7,3.68-14.34,6.45-21.16,10.41-6.27,3.63-12.26,7.64-18.36,11.53-5.8,3.7-12.36,7.9-18.92,10-13.43,4.39-29,2-41-5.13-4.53-2.7-8.73-6.19-13.47-8.53-5.34-2.63-12.63-2.58-18.32-1.16-11.11,2.78-20.75,10.45-31,15.42-12.93,6.27-27.91,10.72-42.41,8.26-5.22-.88-9.52-3.48-12.09-8.21-1.87-3.44-2-7.87-5.35-10.2-8.14-5.61-20-1-28.43,1.44-7.84,2.23-17.88,3.36-22.86-4.47-3.4-5.36-7.91-10.15-12.28-14.76-4.77-5-11.2-5.2-17.45-7.24-4-1.32-7.25-2.45-9.27-6.38-1.11-2.14-1.87-4.44-3-6.57-.9-1.71-3.49-.2-2.59,1.51,1.92,3.67,3,8.76,6.51,11.3,5.24,3.73,12.55,3.68,18.37,5.92,3.46,1.33,5.48,3.78,7.73,6.57,2.5,3.1,5.79,5.5,8,8.84,3.06,4.61,5.13,8,10.89,9.32,12.76,3,24.3-6.09,37-4.83,3.16.31,6.14,1.31,7.43,4.32.82,1.93,1.33,4,2.26,5.85a18.26,18.26,0,0,0,8.85,8.85c11.43,5.17,27.3,2,38.61-2,12.27-4.33,22.95-11.49,34.42-17.41,7.69-4,18.18-5,25.75-.41,5.14,3.15,10,6.78,15.39,9.5a54.21,54.21,0,0,0,38.35,3.37c7.15-2.14,14.18-6.6,20.43-10.6,7.38-4.72,14.6-9.71,22.39-13.76,7.58-4,15.7-6.83,22.86-11.57,4.91-3.26,9.52-7.44,9.7-13.7.06-1.93-2.94-1.93-3,0Z"/><path class="cls-1" d="M442.63,128.58c-1.86,6.76-9.36,9.91-15.3,12.29-6.21,2.48-12.65,4.42-18.64,7.44-5.18,2.61-9.51,6.35-14.19,9.72a73.35,73.35,0,0,1-16.73,9.1,45.34,45.34,0,0,1-38.24-3.42c-4.22-2.48-8.08-5.74-12.46-7.9s-10.27-2.41-15-1.54c-10.54,1.95-19.27,9.42-28.73,14.08-11.26,5.55-23.58,9-36.23,8-5.92-.49-10.85-2.47-13.74-7.86-1.69-3.16-1.74-7-4.91-9.12-6.95-4.57-17-1.16-24.21,1s-18.24,4-22.52-4.14c-2.07-3.94-2-8.38-5.24-11.76-4-4.13-9.51-4.27-14.86-4.8-4-.4-9.22-.43-12.18-3.64-2.09-2.27-3.29-5.39-4.77-8.06-.94-1.69-3.53-.18-2.59,1.51,2,3.59,3.72,8.22,7.3,10.56,5.77,3.78,14,1.7,20.29,3.72s6.62,7.25,8.81,12.54a13.9,13.9,0,0,0,10.4,8.43c11.13,2.39,21.11-5,32.13-4.42,3.3.17,6,.95,7.47,4,.76,1.53,1.11,3.29,1.86,4.85A16.73,16.73,0,0,0,239,177.6c10.24,4.3,24.16,1.63,34.26-1.79,11-3.73,20.41-10.1,30.53-15.54,6.76-3.63,15.91-5,22.87-1.2,5.16,2.78,9.68,6.61,15,9.21,10.34,5.09,22.75,5.72,33.8,2.71a64.13,64.13,0,0,0,19.33-9.5c5.63-3.93,10.7-8.4,17-11.34,10.55-5,30.11-7.45,33.76-20.78a1.5,1.5,0,0,0-2.89-.79Z"/><path class="cls-1" d="M586.2,127.32c9.8-4.91,17-13.88,16.95-25.2s-10.71-19.43-19.69-24.38c-14.38-7.94-30.67-11.82-45.6-18.57-13.41-6.06-24.12-15.5-36.11-23.82-24.4-17-53.58-25.73-83.25-20.11-12.68,2.4-24,8.34-34.73,15.28-5,3.27-10,6.68-15.11,9.79-7.17,4.34-16,5.31-24.28,4.86-15.6-.87-28.27-9.8-41.32-17.39-11.64-6.77-23.57-13.11-36.14-18A138.5,138.5,0,0,0,226,.4c-12.45-.82-27.54-1.07-38.35,6.19-7.54,5.06-11.46,13.07-14.3,21.43-.73,2.14-1.11,4.25-2.79,5.85a17.94,17.94,0,0,1-8.37,4c-6.41,1.44-13.31.71-19.7-.47-12.18-2.24-23.63-7.44-36.06-8.4S80.49,31,74.34,42.81c-2.45,4.68-3.13,9.88-4.93,14.78a22.58,22.58,0,0,1-14,13.62C47.67,73.81,39,73.46,31,74.43c-7.21.87-14,2.4-20.33,6.08C7.12,82.56,1.19,86.3.18,90.62c-.37,1.63,0,3.7,0,5.36v30.17a1.5,1.5,0,0,0,3,0V97.89c0-2-.57-4.91,0-6.84,1.41-4.84,10.33-9,14.58-10.67,7.53-2.93,15.89-3.24,23.86-4,11.4-1,22.18-3,28.55-13.47,2.47-4.09,3.23-8.74,4.65-13.25,2.22-7,6.4-12.76,13.44-15.54,13.7-5.41,28-.65,41.37,3.19,9.89,2.84,20.71,5.33,31,3.8a23.1,23.1,0,0,0,12-5.14c2.82-2.51,3.26-6.51,4.53-9.94,3.84-10.33,10.42-18.13,21.42-21,14.15-3.75,30.73-2.17,44.87.84,26.22,5.58,49.12,19.33,72,32.67,11.74,6.85,24.28,10.76,38,9.34a56,56,0,0,0,10.25-1.64,31.43,31.43,0,0,0,7-3.66c4.94-3,9.7-6.3,14.55-9.45,10.52-6.81,21.57-12.62,34-15a100.21,100.21,0,0,1,46.12,2.35c7.34,2.18,14.24,5.71,21,9.15a125.18,125.18,0,0,1,17.56,11c11.57,8.44,22.23,16.85,35.52,22.52,14,6,29.07,9.81,42.41,17.17,11.22,6.19,21.78,16,16.8,29.82-2.43,6.76-7.79,11.44-14.07,14.58-1.72.87-.2,3.46,1.52,2.59Z"/><path class="cls-1" d="M570.49,127.92c9.06-5.22,14.85-14.56,13.39-25.27-1.49-10.91-12.72-18-21.65-22.5-13.09-6.61-27.38-10.39-40.66-16.56-12.89-6-23.93-15.25-35.84-22.91S461.49,25.32,447.42,23a101,101,0,0,0-39.87,1.23c-11.46,2.82-21.62,8.66-31.41,15.07-4.66,3.06-9.27,6.19-14.09,9-6.63,3.85-16.67,4.18-24.13,3.13-13.52-1.91-24.69-9.63-36.36-16.15-10.72-6-21.58-11.77-33-16.37a130.47,130.47,0,0,0-37.66-9.35c-11.76-1-26-1.37-36.51,4.82-7.25,4.26-11.39,11.41-14.18,19.12a55.6,55.6,0,0,1-1.82,5.42c-1.28,2.66-4.13,4.17-6.86,5.13-5.76,2-12.34,1.62-18.28.74-11.6-1.72-22.4-6.66-34-8.17-10.84-1.42-24-.09-31,9.4-6.6,8.91-4.76,21.59-15.78,27.46-6.86,3.66-15.29,3.32-22.83,4.15-6.17.68-12.14,1.9-17.72,4.73-4.54,2.3-9.56,5.61-12.57,9.83-1.61,2.25-1.43,4.9-1.62,7.61-.41,5.9-1.18,11.5-1.41,17.37-.11,3,.2,6.42-.34,9.26-.36,1.88,2.53,2.69,2.89.79,1-5.14.12-11,.77-16,.32-2.49.66-5,.83-7.54s-.24-6.76.7-9c2.41-5.65,12-10.16,17.34-11.93,6.83-2.26,14.09-2.35,21.16-3.12,10.11-1.1,19.32-4.21,24-13.94C85.41,62,86.14,57.85,87.52,54c2.63-7.49,8.21-12.16,15.94-14,12.76-3,25,1.82,37.12,5.1,9.36,2.53,19.87,4.76,29.5,2.47,3.45-.81,7.23-2.38,9.64-5.07s2.82-6.83,4.09-10c3.67-9.35,10.12-16.15,20.07-18.66,13.27-3.35,28.55-1.91,41.76,1C269.46,20,291.11,32.43,312,44.55c10.62,6.15,21.7,10.8,34.27,10.14,5-.27,11-.64,15.52-2.86,5.16-2.51,9.93-6.09,14.71-9.24,9.72-6.39,19.69-12.39,31.06-15.32a95.73,95.73,0,0,1,41.43-1c15.08,3.07,28.91,12.59,41.49,21.14,12.31,8.36,23.85,16.68,37.76,22.25,14.78,5.92,31.58,10,44.08,20.37,5.39,4.45,9.1,9.87,8.65,17.13-.51,8.09-5.13,14.17-12,18.14a1.5,1.5,0,0,0,1.51,2.59Z"/><path class="cls-1" d="M554.78,128.52c8.34-5.65,12.55-15.48,9.46-25.4s-14-15.91-22.56-20.09c-12.42-6.08-25.87-9.79-38.2-16C492,61.15,482,52.67,471,45.9c-11.39-7-22.62-13.5-36.11-15.22-12.12-1.55-25.4-1.11-37.18,2.31-9.92,2.88-18.77,8.13-27.34,13.76-4.36,2.86-8.67,6-13.31,8.45-6.59,3.41-16.18,3.83-23.39,2.52-12.25-2.22-22.31-9.06-33-15a283.37,283.37,0,0,0-29.52-14.79,126.08,126.08,0,0,0-35.06-9.27C225,17.48,211.52,17,201.25,22.19c-6.75,3.41-11.12,9.41-13.92,16.28-1.6,3.92-2,8.5-5.79,10.91-4.59,2.91-10.49,3.12-15.75,2.77-19.6-1.32-44.21-17.52-62.35-3.1-9.52,7.57-6.65,22.4-18.15,28.36-6.54,3.4-14.57,3-21.7,4.08a42.2,42.2,0,0,0-18.79,7.7C41.66,91.45,37.26,94.13,36,98c-1.17,3.66-.88,7.71-1.89,11.4a36.58,36.58,0,0,0-1.46,6.24c-.38,3.61.06,7.9-1,11.39a1.5,1.5,0,0,0,2.89.8c.65-2.23.49-4.94.66-7.24a55.53,55.53,0,0,1,1.05-8.07c1.32-4.65,1-12.24,3.61-15.3,9.16-10.93,22.53-12.35,35.61-14.11,9.27-1.25,17.12-4.89,21-13.87,1.7-4,2.32-8.37,4.3-12.24,3.43-6.72,10.62-9.73,17.82-10.36,11.28-1,21.49,3.22,32.17,6,8.47,2.16,18,4,26.67,1.74,3.14-.83,7.38-2.59,9.28-5.44,1.77-2.67,2.25-6.61,3.48-9.59,3.68-8.84,10.13-14.81,19.62-16.9,12.38-2.72,26.28-1.45,38.53,1.31,22.26,5,42.52,16.6,62.08,27.93,9.2,5.32,18.83,9.62,29.7,9.63,5,0,11.45-.37,16.16-2.16,4.32-1.65,8.43-5,12.3-7.57,8.83-5.8,17.68-11.66,27.81-15,12.29-4,26.59-4.61,39.35-2.74,14.5,2.12,27.31,10.33,39.35,18.28,11.65,7.68,22.47,16,35.42,21.41C523.77,79,538,83.07,549.94,91.15c5.61,3.79,11.11,8.74,12,15.81,1,7.85-2.13,14.53-8.68,19-1.59,1.08-.09,3.68,1.51,2.59Z"/><path class="cls-1" d="M539.38,128.89c7.19-5.91,9.16-15.51,5.35-24.07-4.1-9.23-14.93-14.73-23.52-18.86-11.23-5.4-23.31-9-34.3-14.91C476.11,65.22,466.56,57.2,456,51c-10.4-6.08-20.21-11.13-32.38-12.35-11.29-1.13-23.54-.58-34.4,2.88-9.16,2.92-17.3,8-25.28,13.21-3.95,2.59-8,5.77-12.29,7.71-6.29,2.84-15.67,3-22.33,1.49C318,61.4,308.57,55,298.58,49.46A253.73,253.73,0,0,0,271,35.8a116.48,116.48,0,0,0-32.09-8.25c-10.27-1-22.54-1.44-32.07,3.21-6.28,3.06-10.45,8.46-13.13,14.78-1.43,3.37-2,8.1-5,10.4-3.86,3-9.4,3.31-14.09,3.13-18.72-.72-40.64-15.87-58.47-4-9.4,6.28-7.12,19.78-16.79,25.63C93.54,84.25,86.13,84,79.64,85.2a39.85,39.85,0,0,0-16.51,7.61c-3.08,2.26-7.48,4.6-9.19,8.12-1.54,3.17-1.42,7-2.93,10.16a20.15,20.15,0,0,0-2.21,6.5c-.47,3.16-.25,7-1.34,10-.66,1.82,2.24,2.6,2.89.8,1.67-4.6.53-10,2.55-14.5a39.84,39.84,0,0,0,2.26-6.49,26.44,26.44,0,0,1,1.27-4.63c1.19-2.47,3.51-3.84,5.72-5.52C66.57,93.92,71,90.59,76.44,89S87.75,87.3,93.35,86.1c8.11-1.74,13.63-6.7,16.38-14.48,1.55-4.39,2.49-9,6-12.36,5-4.82,12.7-5.7,19.29-5.33,9.91.56,19,4.68,28.63,6.68,7.48,1.55,16.07,2.71,23.34-.32,2.37-1,5.11-2.58,6.41-4.88,1.68-3,2.18-6.92,3.66-10.07,9.44-20.09,37.68-16.76,55.6-12.39,19.94,4.85,38,15.28,55.69,25.41,9.06,5.19,18.41,9.53,29.14,9.35,4.41-.08,10.19-.35,14.32-2s7.84-4.62,11.42-7C371.08,53.6,379,48.3,387.89,45.11c11.22-4,23.9-4.66,35.69-3.47,26.91,2.71,45.83,25.29,69.59,35.76,12.35,5.44,25.4,9.49,36.86,16.77,5,3.21,10.58,7.4,12.51,13.32,2.39,7.33.7,14.36-5.28,19.28-1.49,1.22.64,3.34,2.12,2.12Z"/><path class="cls-1" d="M523.67,129.49c6.07-6.33,6-15.15,1.71-22.61-4.73-8.32-14.91-13.21-23.1-17.25-10.75-5.29-22.38-8.88-32.7-15-9.88-5.88-18.89-13-29-18.55-9.34-5.08-17.89-8.72-28.68-9.42-10.39-.66-21.36,0-31.25,3.46-8.4,3-15.84,7.76-23.24,12.63-3.25,2.14-6.57,4.7-10.12,6.32-6.51,2.94-15.64,2.71-22.39,1-9.93-2.51-18.29-8.18-27.16-13.11a234.13,234.13,0,0,0-25.55-12.65,109.77,109.77,0,0,0-28.12-7.55c-9.74-1.19-21.21-1.71-30.48,2.09a25.19,25.19,0,0,0-13.29,13.24c-1.2,2.61-1.89,5.39-3,8-1.86,4.42-7.47,5.57-11.83,5.82-18.23,1-36-12.9-54.1-5.71a17.62,17.62,0,0,0-9.6,8.48c-2.17,4.29-2.7,9.13-5.89,12.9-4.67,5.52-12,5.63-18.59,7-5.9,1.24-10.4,3.81-15.21,7.39-3,2.27-7.28,4.19-9.72,7.1-2.24,2.67-2.43,6.57-4.4,9.37a13.75,13.75,0,0,0-2.91,6c-.67,3.14-.62,6.81-1.83,9.79-.73,1.79,2.17,2.57,2.89.8,1.91-4.69,1-9.89,3.81-14.16a40.92,40.92,0,0,0,3.17-6.77c1.66-3.86,4.26-5,7.75-7.48,4.57-3.25,8.61-6.79,14.11-8.4,5.14-1.51,10.66-1.54,15.69-3.45,6.8-2.58,9.93-8,12.17-14.56,7.86-22.92,35.17-9,51.54-6.17,6.83,1.18,14.82,1.87,21.1-1.7,5.5-3.12,5.54-9.35,8.3-14.55,9.39-17.65,36.28-13.89,52.36-9.75,18.11,4.68,34.58,14.15,50.68,23.39,7.69,4.41,15.44,8.18,24.51,8.69a53.82,53.82,0,0,0,14.3-1.36c3.84-.85,7.26-3.52,10.54-5.64,7.31-4.74,14.47-9.83,22.59-13.13,9.72-3.93,20.25-4.84,30.65-4.48,13.11.44,23.37,5.3,34.46,11.83,10.3,6.08,19.62,13.88,30.38,19.14,11.36,5.56,23.38,9.54,34.39,15.85,10.11,5.79,24.28,19.2,12.95,31-1.33,1.39.78,3.52,2.12,2.12Z"/><path class="cls-1" d="M508.2,129.79c11.26-16-11.91-29.88-23.34-35.71-9.74-5-20.22-8.61-29.62-14.22-8.66-5.17-16.63-11.35-25.51-16.18-8.59-4.66-16.43-8.07-26.35-8.79-9.44-.67-19.46-.14-28.5,2.83-7.66,2.53-14.51,6.74-21.22,11.15-3.13,2.06-6.24,4.35-9.57,6.09-5.38,2.82-12.82,3.28-18.77,2.32-9.72-1.56-17.65-6.84-26.08-11.56a248.91,248.91,0,0,0-24.05-12.21c-16-6.79-36.14-11.74-53.42-7a23.2,23.2,0,0,0-14.14,10.77,42,42,0,0,0-3.17,7.2c-1.57,4.42-3.33,6.71-8.27,7.79-16.73,3.64-32.25-9.17-49.11-6.19-4.12.73-8.3,2.42-11.17,5.57-2.73,3-3.45,6.9-5.11,10.46-4.89,10.57-18.11,8.27-26.49,14.41-4.28,3.12-8.71,5.81-13,8.79-2.6,1.8-3.63,4.79-5.48,7.23s-3.36,3.22-4.32,6.24-1,6.71-2.36,9.68c-.77,1.75,1.81,3.28,2.59,1.52,2-4.48,1.38-9.73,4.64-13.46,1.75-2,2.93-4.27,4.51-6.4,2.63-3.56,7.55-5.23,11.05-7.94,3.93-3,7.36-5.68,12.22-7,3.84-1.07,7.91-1.54,11.51-3.35,6.79-3.43,7.48-9.6,10.79-15.62,5.18-9.43,18.74-8.28,27.57-6.09,7,1.74,13.77,4.31,21,5.25,6.13.79,13.39.88,18.54-3.09,4-3.12,4.32-9.6,6.93-13.89,4.7-7.72,12.88-9.77,21.41-10.25a86.63,86.63,0,0,1,28.24,3.18C276.88,56,292.38,65,307.29,73.73c7,4.1,14.86,7,23.06,6.93,3.88,0,8.9-.31,12.57-1.65,3.12-1.14,6.13-3.53,8.9-5.34,6.79-4.43,13.5-9.1,21.1-12.06,8.85-3.45,18.49-4.22,27.92-3.86,12.16.47,21.7,5.07,32,11.13C442,74.31,450.41,81.09,460,85.82c10.3,5.07,21,9.18,31,14.93,8.71,5,22.55,16.28,14.62,27.52-1.12,1.58,1.48,3.08,2.59,1.52Z"/><path class="cls-1" d="M492.49,130.39c7.15-15.82-15.76-27-26.48-32.57-8.86-4.59-18.29-8.36-26.73-13.7-7.82-5-15.59-9.77-23.56-14.48-13.75-8.11-32.57-8.9-47.66-3.93C361,68,354.68,71.91,348.5,76c-2.89,1.9-5.75,4-8.81,5.62-4.54,2.39-10.45,2.88-15.55,2.46-9.61-.8-17.59-6.29-25.76-10.86a233,233,0,0,0-22-11.2c-14.8-6.32-32.63-10.6-48.67-6.85a21.74,21.74,0,0,0-13.5,9.15c-3,4.59-3.23,11.89-8.67,14.12-7.08,2.91-15.88.61-22.92-1.38-7.57-2.15-15-4.66-23-3.81S147,77.82,143.93,85.05c-2.37,5.63-6,8.08-11.63,10a30.16,30.16,0,0,0-10.68,5.71c-4,3.46-7.8,5.33-12.41,7.75-3.14,1.65-5.12,4.74-7.83,6.93-4.51,3.64-4.14,8.66-6.52,13.69-.82,1.73,1.76,3.26,2.59,1.51,2.12-4.46,1.79-9.73,5.86-12.93,2.34-1.83,4-4.54,6.54-6.15,3.13-2,6.77-2.9,9.81-5.22,2.7-2.07,5-4.69,8-6.31,3.61-1.93,7.83-2.43,11.41-4.44,6.21-3.49,6.16-9.88,10.41-14.74,10.72-12.27,32.58.65,45.7,1.67,5,.4,10.75,0,14.87-3.27,3.69-2.93,3.93-9.07,6.44-13,4.61-7.25,12.62-8.85,20.7-9.18a80.28,80.28,0,0,1,25.6,3.22c15.31,4.43,29.42,12.64,43.09,20.65,6,3.53,12.92,6,20,6.21a40.29,40.29,0,0,0,11.82-1.34c3-.91,5.81-3,8.46-4.71,5.6-3.62,11.06-7.47,17.13-10.27,8.21-3.79,17-4.91,25.94-4.88,10.72,0,19,3,28.3,8.07,8.52,4.64,16.16,10.66,24.64,15.31,9.16,5,18.79,9.15,28,14.07,8,4.27,24.91,14,19.7,25.49-.79,1.75,1.8,3.27,2.59,1.52Z"/><path class="cls-1" d="M476.94,130.63c3-14.06-17-22.54-26.7-27.47C434.72,95.25,420,86.17,405,77.34c-12.54-7.4-29.6-8.14-43.38-3.75-6.28,2-11.93,5.33-17.41,8.91-2.57,1.68-5.11,3.4-7.73,5-4.44,2.69-9.88,3.4-15,3.06-8.72-.57-15.9-5.42-23.29-9.55-6.5-3.65-13-7.25-19.87-10.24-13.52-5.93-28.85-9.57-43.65-7.15-5.19.85-10,3-13.34,7.17a25.26,25.26,0,0,0-3.53,6.13c-.81,1.91-1.17,4.52-2.36,6.2-4,5.68-15.24,3.2-20.74,1.88-6.48-1.56-12.64-4.07-19.37-4.49-6.47-.4-14,.94-17.7,6.85-2.47,4-3.46,7.64-7.79,10.2-3.46,2-6.72,3.54-9.64,6.38a30.7,30.7,0,0,1-12.14,7.5c-3.5,1.25-6.42,3.49-9.68,5.23-5.12,2.74-5.33,8.26-7.73,13.08-.86,1.72,1.73,3.24,2.59,1.51a46.94,46.94,0,0,0,1.92-5c1.43-3.9,2.32-5.6,6-7.64,3.06-1.71,5.77-3.49,9.11-4.69a27.26,27.26,0,0,0,8.14-4.11c2.69-2.15,4.74-4.93,7.67-6.79,2.63-1.67,5.64-2.67,8-4.71,5.75-4.87,5.38-12.5,14-14.33,13.16-2.79,25.37,6.08,38.54,5.51,3.87-.16,9.34-1.22,11.6-4.83,2.53-4,2.61-8.89,6-12.65,5-5.57,13.09-6,20.11-6a75.65,75.65,0,0,1,23.48,4c13.38,4.39,25.51,11.79,37.68,18.72A36.59,36.59,0,0,0,325,93.56c2.93-.15,6.64-.36,9.39-1.43s5.5-3.22,8-4.86c5.21-3.41,10.37-6.94,16.14-9.36,7.55-3.15,15.68-3.93,23.8-3.72,18.75.48,32.19,13.22,47.86,21.76,8.23,4.49,16.61,8.71,24.91,13.06,7.05,3.69,21,11,18.91,20.82-.4,1.88,2.49,2.69,2.9.8Z"/><path class="cls-1" d="M461.28,130.83c-.35-12.22-16.89-17.89-26-22.09a182.32,182.32,0,0,1-21.66-12.12c-6.39-4.06-12.82-7.78-19.35-11.59-11.36-6.64-26.58-7.41-39.1-3.57s-22,15.9-35.51,15.61c-8.21-.18-14.83-4.37-21.75-8.25-5.6-3.14-11.22-6.28-17.06-8.95-12.26-5.6-25.55-9-39.1-7.63-10.78,1.08-15.63,6.7-19.34,16.23-4.46,11.47-26.39.73-34.57-.32-6.16-.79-13.82-.32-18,4.95-2,2.54-3.23,5.49-5.52,7.88-2.55,2.65-4.89,5.4-7.37,8.11-5.94,6.48-15.63,5.35-23,9.38-4.37,2.37-5.43,7.8-7.58,11.9-.9,1.71,1.69,3.22,2.59,1.51,2.66-5,3.26-9.46,9.06-11.81,6-2.41,13.2-2.36,18.41-6.33a24.27,24.27,0,0,0,4.14-4.33c2.15-2.68,4.7-4.84,6.95-7.41a54.72,54.72,0,0,0,4-6.08c2.73-4.11,7.58-5.13,12.24-5.08,11.13.13,21.35,7.1,32.7,5.21,3.59-.59,6.83-2.09,8.39-5.43,2.22-4.71,3-9.52,7.74-12.58,5.36-3.43,12.55-3.33,18.67-3a71.83,71.83,0,0,1,21.36,4.64A135.87,135.87,0,0,1,290,87.87c5.64,3.07,11.15,6.94,17.06,9.44A33.06,33.06,0,0,0,322.38,100c6.41-.49,10.47-2.71,15.74-6.17,4.83-3.17,9.66-6.41,15.09-8.49,7.05-2.71,14.84-3.26,22.33-2.81,16.19,1,29.43,12.5,42.8,20.54,7.4,4.45,15.06,7.95,22.81,11.7,6.43,3.1,16.89,7.82,17.13,16.09.06,1.92,3.06,1.93,3,0Z"/><path class="cls-1" d="M445.52,131c-3.12-11.37-18.16-14.56-27.63-18.22-12.28-4.75-21.37-13.86-33.08-19.57-11.1-5.41-24-7.4-36.06-3.91s-21.14,15.51-34.47,14.1c-6.19-.66-11.33-3.76-16.56-6.86a162.65,162.65,0,0,0-16.94-9c-11-4.88-23.33-7.77-35.44-6.28-4.19.52-8.27,1.8-11.35,4.83s-3.7,6.51-5.48,10.08c-4.9,9.83-23.77.12-31.45-.7-5.78-.62-12.34.17-16.31,4.88-3.36,4-2.8,9.78-6.36,13.53-5.95,6.27-16.39,2.4-23.66,5.84-4.45,2.1-6.38,7.23-8.62,11.27-.94,1.69,1.65,3.21,2.59,1.51,3.15-5.68,5-10,12-11.15,5.77-.93,12.62-.13,17.7-3.58a14.49,14.49,0,0,0,5.59-8.33c.63-2.14,1.07-4.37,2.34-6.25,2.61-3.88,7.18-4.88,11.55-4.92,10.19-.08,19.59,6.63,30,4.58,3.18-.63,5.83-2.06,7.22-5,1.87-4,2.55-8,6.34-10.78,5-3.66,12.37-3.4,18.27-3a66.89,66.89,0,0,1,19.67,4.49c10.5,4,19.29,11.13,29.51,15.5a30.45,30.45,0,0,0,14.87,2.3c5.76-.57,9.28-2.87,14.06-6,10.41-6.85,20.61-10.63,33.31-9.39,14.9,1.45,25.15,10.78,37.05,18.62,6,4,13,6.17,19.69,8.67,6.85,2.57,16.58,5.68,18.75,13.61a1.5,1.5,0,0,0,2.89-.8Z"/></g></g></svg>