<svg xmlns="http://www.w3.org/2000/svg" viewBox="0 0 612.8 64.55"><defs><style>.cls-1{fill:#b28cc7;}.cls-2{fill:#3bc6b1;}</style></defs><title>neuro</title><g id="Layer_2" data-name="Layer 2"><g id="Layer_12" data-name="Layer 12"><path class="cls-1" d="M33.09,2.91H43.64V50.2H33.09L10.56,20.57V50.2H0V2.91H9.88L33.09,33.36Z"/><path class="cls-1" d="M85.79,44.93a20.34,20.34,0,0,1-14.44,5.82,19.17,19.17,0,0,1-13.7-5.11q-5.41-5.12-5.42-13.7t5.52-13.67a18.61,18.61,0,0,1,13-5.08,18.86,18.86,0,0,1,12.76,4.54q5.23,4.53,5.24,12.45v5.41H62.25a7.19,7.19,0,0,0,3.11,4.87,10,10,0,0,0,6,1.9,11.68,11.68,0,0,0,8.8-3.59ZM76.05,23.34a7.7,7.7,0,0,0-5.11-1.76,9.12,9.12,0,0,0-5.51,1.83,7,7,0,0,0-2.91,4.94h16A7.23,7.23,0,0,0,76.05,23.34Z"/><path class="cls-1" d="M119.56,33.42V13.8h10.21V50.2H119.56V45.4q-3.8,5.34-9.78,5.35a14.27,14.27,0,0,1-10-3.76q-4.07-3.75-4.06-11.13V13.8h10.22V33.63q0,8.38,6.16,8.39a7.28,7.28,0,0,0,5.27-2.2Q119.56,37.62,119.56,33.42Z"/><path class="cls-1" d="M158.53,22.73A7.71,7.71,0,0,0,151.76,26a14.58,14.58,0,0,0-2.23,8.49V50.2H139.38V13.8h10.15v4.81a17,17,0,0,1,4.91-3.79,13.33,13.33,0,0,1,6-1.63l.07,9.54Z"/><path class="cls-1" d="M203.05,32a18,18,0,0,1-5.48,13.33,20.2,20.2,0,0,1-27.54,0A18,18,0,0,1,164.55,32,18.13,18.13,0,0,1,170,18.64a20.12,20.12,0,0,1,27.54,0A18.13,18.13,0,0,1,203.05,32Zm-28.28,0a10.4,10.4,0,0,0,2.54,7.28,8.91,8.91,0,0,0,13,0A10.44,10.44,0,0,0,192.83,32a10.55,10.55,0,0,0-2.53-7.3,8.83,8.83,0,0,0-13,0A10.51,10.51,0,0,0,174.77,32Z"/><path class="cls-1" d="M221.83,12.35a4.06,4.06,0,0,0-1.53,3.31A3.77,3.77,0,0,0,222.16,19q1.86,1.22,8.6,2.87t10.45,5q3.72,3.32,3.72,9.68a12.78,12.78,0,0,1-4.77,10.32q-4.77,4-12.55,4-11.24,0-20.23-8.33l6.29-7.71q7.65,6.7,14.14,6.7a7.47,7.47,0,0,0,4.57-1.25A4,4,0,0,0,234,36.77a4,4,0,0,0-1.76-3.38c-1.17-.83-3.5-1.68-7-2.54q-8.25-2-12.08-5.11t-3.82-9.87q0-6.73,4.84-10.39a19.42,19.42,0,0,1,12.07-3.65,29.16,29.16,0,0,1,9.48,1.62,25.4,25.4,0,0,1,8.25,4.6l-5.34,7.71A20.85,20.85,0,0,0,226,11.1,6.32,6.32,0,0,0,221.83,12.35Z"/><path class="cls-1" d="M258.4,64.55q-5.35,0-10.09-4.33l4.61-7.51a7.57,7.57,0,0,0,5.27,2.5,3,3,0,0,0,2.44-1.39,4.85,4.85,0,0,0,1-2.94q0-1.56-14.07-37.08H258.4l8.86,22.67,8.86-22.67H287L270,56.7a12,12,0,0,1-4.63,5.78A12.47,12.47,0,0,1,258.4,64.55Z"/><path class="cls-1" d="M302.17,29.91V50.2H292V13.8h10.15v4.06a14.23,14.23,0,0,1,10.35-4.67,12.86,12.86,0,0,1,9.65,4.06q3.88,4.07,3.89,10.83V50.2H315.91V29.64q0-8.4-6.16-8.39a7.39,7.39,0,0,0-5.31,2.19C302.93,24.91,302.17,27.06,302.17,29.91Z"/><path class="cls-1" d="M352.71,41.75q5.09,0,9.14-5.08l6,6.77q-7,7.31-15.22,7.31a19.75,19.75,0,0,1-13.84-5.18A17.48,17.48,0,0,1,333.16,32a17.6,17.6,0,0,1,5.72-13.6,19.37,19.37,0,0,1,13.56-5.25,21.17,21.17,0,0,1,7.95,1.63,20,20,0,0,1,7.07,4.8l-5.27,6.9a12.62,12.62,0,0,0-9.34-4.39,9.87,9.87,0,0,0-6.87,2.6A9.26,9.26,0,0,0,343.11,32,9.17,9.17,0,0,0,346,39.18,9.8,9.8,0,0,0,352.71,41.75Z"/><path class="cls-1" d="M384.78,30.58V50.2H374.64V0h10.14V17.86a14.2,14.2,0,0,1,10.32-4.67,12.9,12.9,0,0,1,9.64,4.06q3.93,4.07,3.93,10.83V50.2H398.52V30.31q0-8.39-6.16-8.39a7.4,7.4,0,0,0-5.31,2.2Q384.79,26.33,384.78,30.58Z"/><path class="cls-2" d="M478.76,2.84V50.2H472V29.09H444.8V50.2H438V2.84h6.77V23.21H472V2.84Z"/><path class="cls-2" d="M524.3,34.44H495.21a11.23,11.23,0,0,0,4.16,7.61,13.57,13.57,0,0,0,8.83,2.88,13.33,13.33,0,0,0,10.35-4.33l3.59,4.19a15.71,15.71,0,0,1-6.06,4.33,22.85,22.85,0,0,1-18.17-.84,16.72,16.72,0,0,1-6.8-6.53,18.76,18.76,0,0,1-2.4-9.48,19.07,19.07,0,0,1,2.33-9.4,16.75,16.75,0,0,1,6.43-6.53A18.28,18.28,0,0,1,506.71,14a17.92,17.92,0,0,1,9.17,2.33,16.41,16.41,0,0,1,6.29,6.53,19.92,19.92,0,0,1,2.27,9.61A18.93,18.93,0,0,1,524.3,34.44ZM498.89,22.33a11.46,11.46,0,0,0-3.68,7.44h23a11.53,11.53,0,0,0-3.69-7.41,12.12,12.12,0,0,0-15.63,0Z"/><path class="cls-2" d="M556.88,17.66q4,3.66,4,10.89V50.2h-6.16V45.47A10.24,10.24,0,0,1,550,49.29a17.62,17.62,0,0,1-7.13,1.32q-6,0-9.64-2.91a9.31,9.31,0,0,1-3.62-7.64,9.43,9.43,0,0,1,3.45-7.62q3.45-2.86,11-2.87h10.28V28.28a8.31,8.31,0,0,0-2.43-6.43c-1.63-1.48-4-2.23-7.18-2.23a18.94,18.94,0,0,0-6.22,1.05,16,16,0,0,0-5.14,2.81l-2.71-4.87a19.64,19.64,0,0,1,6.63-3.42A27.72,27.72,0,0,1,545.48,14Q552.92,14,556.88,17.66ZM550.42,44a9.53,9.53,0,0,0,3.92-4.71v-5h-10q-8.26,0-8.26,5.54a5,5,0,0,0,2.1,4.27A9.58,9.58,0,0,0,544,45.6,12.13,12.13,0,0,0,550.42,44Z"/><path class="cls-2" d="M572.88,0h6.5V50.2h-6.5Z"/><path class="cls-2" d="M612.8,48.11A9.76,9.76,0,0,1,609.28,50a14.64,14.64,0,0,1-4.33.64q-5.41,0-8.39-2.91t-3-8.32V19.69h-6.09V14.34h6.09V6.5h6.5v7.84h10.28v5.35H600.08V39.11a6.27,6.27,0,0,0,1.45,4.46,5.41,5.41,0,0,0,4.16,1.56,7.82,7.82,0,0,0,5.08-1.69Z"/></g></g></svg>