<svg xmlns="http://www.w3.org/2000/svg" viewBox="0 0 1213 481"><defs><style>.cls-1,.cls-119,.cls-120{fill:none;}.cls-1,.cls-119{stroke:#9e53c9;stroke-width:3px;}.cls-1{stroke-linecap:round;stroke-linejoin:round;}.cls-2{fill:#3bc6b1;opacity:0.6;}.cls-3{fill:#3cc5b1;opacity:0.6;}.cls-4{fill:#3dc4b1;opacity:0.61;}.cls-5{fill:#3ec3b2;opacity:0.61;}.cls-6{fill:#3ec2b2;opacity:0.61;}.cls-7{fill:#3fc1b2;opacity:0.62;}.cls-8{fill:#40c0b2;opacity:0.62;}.cls-9{fill:#41bfb2;opacity:0.62;}.cls-10{fill:#42beb3;opacity:0.63;}.cls-11{fill:#43bdb3;opacity:0.63;}.cls-12{fill:#44bcb3;opacity:0.63;}.cls-13{fill:#44bbb3;opacity:0.64;}.cls-14{fill:#45bab3;opacity:0.64;}.cls-15{fill:#46b9b4;opacity:0.64;}.cls-16{fill:#47b8b4;opacity:0.65;}.cls-17{fill:#48b7b4;opacity:0.65;}.cls-18{fill:#49b6b4;opacity:0.66;}.cls-19{fill:#4ab5b5;opacity:0.66;}.cls-20{fill:#4ab4b5;opacity:0.66;}.cls-21{fill:#4bb3b5;opacity:0.67;}.cls-22{fill:#4cb2b5;opacity:0.67;}.cls-23{fill:#4db1b5;opacity:0.67;}.cls-24{fill:#4eb0b6;opacity:0.68;}.cls-25{fill:#4fafb6;opacity:0.68;}.cls-26{fill:#4faeb6;opacity:0.68;}.cls-27{fill:#50adb6;opacity:0.69;}.cls-28{fill:#51acb6;opacity:0.69;}.cls-29{fill:#52abb7;opacity:0.69;}.cls-30{fill:#53aab7;opacity:0.7;}.cls-31{fill:#54a9b7;opacity:0.7;}.cls-32{fill:#55a8b7;opacity:0.7;}.cls-33{fill:#55a7b7;opacity:0.71;}.cls-34{fill:#56a6b8;opacity:0.71;}.cls-35{fill:#57a5b8;opacity:0.71;}.cls-36{fill:#58a4b8;opacity:0.72;}.cls-37{fill:#59a3b8;opacity:0.72;}.cls-38{fill:#5aa2b8;opacity:0.72;}.cls-39{fill:#5ba1b9;opacity:0.73;}.cls-40{fill:#5ba0b9;opacity:0.73;}.cls-41{fill:#5c9fb9;opacity:0.73;}.cls-42{fill:#5d9eb9;opacity:0.74;}.cls-43{fill:#5e9db9;opacity:0.74;}.cls-44{fill:#5f9cba;opacity:0.74;}.cls-45{fill:#609bba;opacity:0.75;}.cls-46{fill:#619aba;opacity:0.75;}.cls-47{fill:#6199ba;opacity:0.76;}.cls-48{fill:#6298bb;opacity:0.76;}.cls-49{fill:#6397bb;opacity:0.76;}.cls-50{fill:#6496bb;opacity:0.77;}.cls-51{fill:#6595bb;opacity:0.77;}.cls-52{fill:#6694bb;opacity:0.77;}.cls-53{fill:#6793bc;opacity:0.78;}.cls-54{fill:#6792bc;opacity:0.78;}.cls-55{fill:#6891bc;opacity:0.78;}.cls-56{fill:#6990bc;opacity:0.79;}.cls-57{fill:#6a8fbc;opacity:0.79;}.cls-58{fill:#6b8ebd;opacity:0.79;}.cls-59{fill:#6c8dbd;opacity:0.8;}.cls-60,.cls-61{fill:#6d8cbd;}.cls-60{opacity:0.8;}.cls-61{opacity:0.8;}.cls-62{fill:#6e8bbd;opacity:0.81;}.cls-63{fill:#6f8abe;opacity:0.81;}.cls-64{fill:#7089be;opacity:0.81;}.cls-65{fill:#7188be;opacity:0.82;}.cls-66{fill:#7287be;opacity:0.82;}.cls-67{fill:#7286be;opacity:0.82;}.cls-68{fill:#7385bf;opacity:0.83;}.cls-69{fill:#7484bf;opacity:0.83;}.cls-70{fill:#7583bf;opacity:0.83;}.cls-71{fill:#7682bf;opacity:0.84;}.cls-72{fill:#7781bf;opacity:0.84;}.cls-73{fill:#7880c0;opacity:0.84;}.cls-74{fill:#787fc0;opacity:0.85;}.cls-75{fill:#797ec0;opacity:0.85;}.cls-76{fill:#7a7dc0;opacity:0.86;}.cls-77{fill:#7b7cc1;opacity:0.86;}.cls-78{fill:#7c7bc1;opacity:0.86;}.cls-79{fill:#7d7ac1;opacity:0.87;}.cls-80{fill:#7e79c1;opacity:0.87;}.cls-81{fill:#7e78c1;opacity:0.87;}.cls-82{fill:#7f77c2;opacity:0.88;}.cls-83{fill:#8076c2;opacity:0.88;}.cls-84{fill:#8175c2;opacity:0.88;}.cls-85{fill:#8274c2;opacity:0.89;}.cls-86{fill:#8373c2;opacity:0.89;}.cls-87{fill:#8472c3;opacity:0.89;}.cls-88{fill:#8471c3;opacity:0.9;}.cls-89{fill:#8570c3;opacity:0.9;}.cls-90{fill:#866fc3;opacity:0.9;}.cls-91{fill:#876ec3;opacity:0.91;}.cls-92{fill:#886dc4;opacity:0.91;}.cls-93{fill:#896cc4;opacity:0.91;}.cls-94{fill:#8a6bc4;opacity:0.92;}.cls-95{fill:#8a6ac4;opacity:0.92;}.cls-96{fill:#8b69c4;opacity:0.92;}.cls-97{fill:#8c68c5;opacity:0.93;}.cls-98{fill:#8d67c5;opacity:0.93;}.cls-99{fill:#8e66c5;opacity:0.93;}.cls-100{fill:#8f65c5;opacity:0.94;}.cls-101{fill:#8f64c5;opacity:0.94;}.cls-102{fill:#9063c6;opacity:0.94;}.cls-103{fill:#9162c6;opacity:0.95;}.cls-104{fill:#9261c6;opacity:0.95;}.cls-105{fill:#9360c6;opacity:0.96;}.cls-106{fill:#945fc7;opacity:0.96;}.cls-107{fill:#955ec7;opacity:0.96;}.cls-108{fill:#955dc7;opacity:0.97;}.cls-109{fill:#965cc7;opacity:0.97;}.cls-110{fill:#975bc7;opacity:0.97;}.cls-111{fill:#985ac8;opacity:0.98;}.cls-112{fill:#9959c8;opacity:0.98;}.cls-113{fill:#9a58c8;opacity:0.98;}.cls-114{fill:#9b57c8;opacity:0.99;}.cls-115{fill:#9b56c8;opacity:0.99;}.cls-116{fill:#9c55c9;opacity:0.99;}.cls-117{fill:#9d54c9;opacity:1;}.cls-118{fill:#9e53c9;}.cls-119,.cls-120{stroke-miterlimit:10;}.cls-120{stroke:#3bc6b1;stroke-width:9px;}</style></defs><title>science</title><g id="Layer_2" data-name="Layer 2"><g id="Layer_5" data-name="Layer 5"><line class="cls-1" x1="509.5" y1="146.5" x2="1135" y2="80"/><path class="cls-1" d="M1209.5,4.5"/><line class="cls-1" x1="510" y1="146" x2="52.57" y2="428.04"/><circle class="cls-2" cx="1134" cy="80" r="67.5"/><circle class="cls-3" cx="1134" cy="80" r="67.14"/><circle class="cls-4" cx="1134" cy="80" r="66.78"/><circle class="cls-5" cx="1134" cy="80" r="66.42"/><circle class="cls-6" cx="1134" cy="80" r="66.05"/><circle class="cls-7" cx="1134" cy="80" r="65.69"/><circle class="cls-8" cx="1134" cy="80" r="65.33"/><circle class="cls-9" cx="1134" cy="80" r="64.97"/><circle class="cls-10" cx="1134" cy="80" r="64.61"/><circle class="cls-11" cx="1134" cy="80" r="64.25"/><circle class="cls-12" cx="1134" cy="80" r="63.88"/><circle class="cls-13" cx="1134" cy="80" r="63.52"/><circle class="cls-14" cx="1134" cy="80" r="63.16"/><circle class="cls-15" cx="1134" cy="80" r="62.8"/><circle class="cls-16" cx="1134" cy="80" r="62.44"/><circle class="cls-17" cx="1134" cy="80" r="62.08"/><circle class="cls-18" cx="1134" cy="80" r="61.71"/><circle class="cls-19" cx="1134" cy="80" r="61.35"/><circle class="cls-20" cx="1134" cy="80" r="60.99"/><circle class="cls-21" cx="1134" cy="80" r="60.63"/><circle class="cls-22" cx="1134" cy="80" r="60.27"/><circle class="cls-23" cx="1134" cy="80" r="59.91"/><circle class="cls-24" cx="1134" cy="80" r="59.54"/><circle class="cls-25" cx="1134" cy="80" r="59.18"/><circle class="cls-26" cx="1134" cy="80" r="58.82"/><circle class="cls-27" cx="1134" cy="80" r="58.46"/><circle class="cls-28" cx="1134" cy="80" r="58.1"/><circle class="cls-29" cx="1134" cy="80" r="57.74"/><circle class="cls-30" cx="1134" cy="80" r="57.37"/><circle class="cls-31" cx="1134" cy="80" r="57.01"/><circle class="cls-32" cx="1134" cy="80" r="56.65"/><circle class="cls-33" cx="1134" cy="80" r="56.29"/><circle class="cls-34" cx="1134" cy="80" r="55.93"/><circle class="cls-35" cx="1134" cy="80" r="55.57"/><circle class="cls-36" cx="1134" cy="80" r="55.2"/><circle class="cls-37" cx="1134" cy="80" r="54.84"/><circle class="cls-38" cx="1134" cy="80" r="54.48"/><circle class="cls-39" cx="1134" cy="80" r="54.12"/><circle class="cls-40" cx="1134" cy="80" r="53.76"/><circle class="cls-41" cx="1134" cy="80" r="53.4"/><circle class="cls-42" cx="1134" cy="80" r="53.03"/><circle class="cls-43" cx="1134" cy="80" r="52.67"/><circle class="cls-44" cx="1134" cy="80" r="52.31"/><circle class="cls-45" cx="1134" cy="80" r="51.95"/><circle class="cls-46" cx="1134" cy="80" r="51.59"/><circle class="cls-47" cx="1134" cy="80" r="51.23"/><circle class="cls-48" cx="1134" cy="80" r="50.86"/><circle class="cls-49" cx="1134" cy="80" r="50.5"/><circle class="cls-50" cx="1134" cy="80" r="50.14"/><circle class="cls-51" cx="1134" cy="80" r="49.78"/><circle class="cls-52" cx="1134" cy="80" r="49.42"/><circle class="cls-53" cx="1134" cy="80" r="49.06"/><circle class="cls-54" cx="1134" cy="80" r="48.7"/><circle class="cls-55" cx="1134" cy="80" r="48.33"/><circle class="cls-56" cx="1134" cy="80" r="47.97"/><circle class="cls-57" cx="1134" cy="80" r="47.61"/><circle class="cls-58" cx="1134" cy="80" r="47.25"/><circle class="cls-59" cx="1134" cy="80" r="46.89"/><circle class="cls-60" cx="1134" cy="80" r="46.53"/><circle class="cls-61" cx="1134" cy="80" r="46.16"/><circle class="cls-62" cx="1134" cy="80" r="45.8"/><circle class="cls-63" cx="1134" cy="80" r="45.44"/><circle class="cls-64" cx="1134" cy="80" r="45.08"/><circle class="cls-65" cx="1134" cy="80" r="44.72"/><circle class="cls-66" cx="1134" cy="80" r="44.36"/><circle class="cls-67" cx="1134" cy="80" r="43.99"/><circle class="cls-68" cx="1134" cy="80" r="43.63"/><circle class="cls-69" cx="1134" cy="80" r="43.27"/><circle class="cls-70" cx="1134" cy="80" r="42.91"/><circle class="cls-71" cx="1134" cy="80" r="42.55"/><circle class="cls-72" cx="1134" cy="80" r="42.19"/><circle class="cls-73" cx="1134" cy="80" r="41.82"/><circle class="cls-74" cx="1134" cy="80" r="41.46"/><circle class="cls-75" cx="1134" cy="80" r="41.1"/><circle class="cls-76" cx="1134" cy="80" r="40.74"/><circle class="cls-77" cx="1134" cy="80" r="40.38"/><circle class="cls-78" cx="1134" cy="80" r="40.02"/><circle class="cls-79" cx="1134" cy="80" r="39.65"/><circle class="cls-80" cx="1134" cy="80" r="39.29"/><circle class="cls-81" cx="1134" cy="80" r="38.93"/><circle class="cls-82" cx="1134" cy="80" r="38.57"/><circle class="cls-83" cx="1134" cy="80" r="38.21"/><circle class="cls-84" cx="1134" cy="80" r="37.85"/><circle class="cls-85" cx="1134" cy="80" r="37.48"/><circle class="cls-86" cx="1134" cy="80" r="37.12"/><circle class="cls-87" cx="1134" cy="80" r="36.76"/><circle class="cls-88" cx="1134" cy="80" r="36.4"/><circle class="cls-89" cx="1134" cy="80" r="36.04"/><circle class="cls-90" cx="1134" cy="80" r="35.68"/><circle class="cls-91" cx="1134" cy="80" r="35.31"/><circle class="cls-92" cx="1134" cy="80" r="34.95"/><circle class="cls-93" cx="1134" cy="80" r="34.59"/><circle class="cls-94" cx="1134" cy="80" r="34.23"/><circle class="cls-95" cx="1134" cy="80" r="33.87"/><circle class="cls-96" cx="1134" cy="80" r="33.51"/><circle class="cls-97" cx="1134" cy="80" r="33.15"/><circle class="cls-98" cx="1134" cy="80" r="32.78"/><circle class="cls-99" cx="1134" cy="80" r="32.42"/><circle class="cls-100" cx="1134" cy="80" r="32.06"/><circle class="cls-101" cx="1134" cy="80" r="31.7"/><circle class="cls-102" cx="1134" cy="80" r="31.34"/><circle class="cls-103" cx="1134" cy="80" r="30.98"/><circle class="cls-104" cx="1134" cy="80" r="30.61"/><circle class="cls-105" cx="1134" cy="80" r="30.25"/><circle class="cls-106" cx="1134" cy="80" r="29.89"/><circle class="cls-107" cx="1134" cy="80" r="29.53"/><circle class="cls-108" cx="1134" cy="80" r="29.17"/><circle class="cls-109" cx="1134" cy="80" r="28.81"/><circle class="cls-110" cx="1134" cy="80" r="28.44"/><circle class="cls-111" cx="1134" cy="80" r="28.08"/><circle class="cls-112" cx="1134" cy="80" r="27.72"/><circle class="cls-113" cx="1134" cy="80" r="27.36"/><circle class="cls-114" cx="1134" cy="80" r="27"/><circle class="cls-115" cx="1134" cy="80" r="26.64"/><circle class="cls-116" cx="1134" cy="80" r="26.27"/><circle class="cls-117" cx="1134" cy="80" r="25.91"/><circle class="cls-118" cx="1134" cy="80" r="25.55"/><circle class="cls-2" cx="55.1" cy="426.43" r="46.5"/><circle class="cls-3" cx="55.1" cy="426.43" r="46.2"/><circle class="cls-4" cx="55.1" cy="426.43" r="45.9"/><circle class="cls-5" cx="55.1" cy="426.43" r="45.6"/><circle class="cls-6" cx="55.1" cy="426.43" r="45.3"/><circle class="cls-7" cx="55.1" cy="426.43" r="45.01"/><circle class="cls-8" cx="55.1" cy="426.43" r="44.71"/><circle class="cls-9" cx="55.1" cy="426.43" r="44.41"/><circle class="cls-10" cx="55.1" cy="426.43" r="44.11"/><circle class="cls-11" cx="55.1" cy="426.43" r="43.81"/><circle class="cls-12" cx="55.1" cy="426.43" r="43.51"/><circle class="cls-13" cx="55.1" cy="426.43" r="43.21"/><circle class="cls-14" cx="55.1" cy="426.43" r="42.91"/><circle class="cls-15" cx="55.1" cy="426.43" r="42.61"/><circle class="cls-16" cx="55.1" cy="426.43" r="42.31"/><circle class="cls-17" cx="55.1" cy="426.43" r="42.02"/><circle class="cls-18" cx="55.1" cy="426.43" r="41.72"/><circle class="cls-19" cx="55.1" cy="426.43" r="41.42"/><circle class="cls-20" cx="55.1" cy="426.43" r="41.12"/><circle class="cls-21" cx="55.1" cy="426.43" r="40.82"/><circle class="cls-22" cx="55.1" cy="426.43" r="40.52"/><circle class="cls-23" cx="55.1" cy="426.43" r="40.22"/><circle class="cls-24" cx="55.1" cy="426.43" r="39.92"/><circle class="cls-25" cx="55.1" cy="426.43" r="39.62"/><circle class="cls-26" cx="55.1" cy="426.43" r="39.33"/><circle class="cls-27" cx="55.1" cy="426.43" r="39.03"/><circle class="cls-28" cx="55.1" cy="426.43" r="38.73"/><circle class="cls-29" cx="55.1" cy="426.43" r="38.43"/><circle class="cls-30" cx="55.1" cy="426.43" r="38.13"/><circle class="cls-31" cx="55.1" cy="426.43" r="37.83"/><circle class="cls-32" cx="55.1" cy="426.43" r="37.53"/><circle class="cls-33" cx="55.1" cy="426.43" r="37.23"/><circle class="cls-34" cx="55.1" cy="426.43" r="36.93"/><circle class="cls-35" cx="55.1" cy="426.43" r="36.63"/><circle class="cls-36" cx="55.1" cy="426.43" r="36.34"/><circle class="cls-37" cx="55.1" cy="426.43" r="36.04"/><circle class="cls-38" cx="55.1" cy="426.43" r="35.74"/><circle class="cls-39" cx="55.1" cy="426.43" r="35.44"/><circle class="cls-40" cx="55.1" cy="426.43" r="35.14"/><circle class="cls-41" cx="55.1" cy="426.43" r="34.84"/><circle class="cls-42" cx="55.1" cy="426.43" r="34.54"/><circle class="cls-43" cx="55.1" cy="426.43" r="34.24"/><circle class="cls-44" cx="55.1" cy="426.43" r="33.94"/><circle class="cls-45" cx="55.1" cy="426.43" r="33.65"/><circle class="cls-46" cx="55.1" cy="426.43" r="33.35"/><circle class="cls-47" cx="55.1" cy="426.43" r="33.05"/><circle class="cls-48" cx="55.1" cy="426.43" r="32.75"/><circle class="cls-49" cx="55.1" cy="426.43" r="32.45"/><circle class="cls-50" cx="55.1" cy="426.43" r="32.15"/><circle class="cls-51" cx="55.1" cy="426.43" r="31.85"/><circle class="cls-52" cx="55.1" cy="426.43" r="31.55"/><circle class="cls-53" cx="55.1" cy="426.43" r="31.25"/><circle class="cls-54" cx="55.1" cy="426.43" r="30.95"/><circle class="cls-55" cx="55.1" cy="426.43" r="30.66"/><circle class="cls-56" cx="55.1" cy="426.43" r="30.36"/><circle class="cls-57" cx="55.1" cy="426.43" r="30.06"/><circle class="cls-58" cx="55.1" cy="426.43" r="29.76"/><circle class="cls-59" cx="55.1" cy="426.43" r="29.46"/><circle class="cls-60" cx="55.1" cy="426.43" r="29.16"/><circle class="cls-61" cx="55.1" cy="426.43" r="28.86"/><circle class="cls-62" cx="55.1" cy="426.43" r="28.56"/><circle class="cls-63" cx="55.1" cy="426.43" r="28.26"/><circle class="cls-64" cx="55.1" cy="426.43" r="27.97"/><circle class="cls-65" cx="55.1" cy="426.43" r="27.67"/><circle class="cls-66" cx="55.1" cy="426.43" r="27.37"/><circle class="cls-67" cx="55.1" cy="426.43" r="27.07"/><circle class="cls-68" cx="55.1" cy="426.43" r="26.77"/><circle class="cls-69" cx="55.1" cy="426.43" r="26.47"/><circle class="cls-70" cx="55.1" cy="426.43" r="26.17"/><circle class="cls-71" cx="55.1" cy="426.43" r="25.87"/><circle class="cls-72" cx="55.1" cy="426.43" r="25.57"/><circle class="cls-73" cx="55.1" cy="426.43" r="25.27"/><circle class="cls-74" cx="55.1" cy="426.43" r="24.98"/><circle class="cls-75" cx="55.1" cy="426.43" r="24.68"/><circle class="cls-76" cx="55.1" cy="426.43" r="24.38"/><circle class="cls-77" cx="55.1" cy="426.43" r="24.08"/><circle class="cls-78" cx="55.1" cy="426.43" r="23.78"/><circle class="cls-79" cx="55.1" cy="426.43" r="23.48"/><circle class="cls-80" cx="55.1" cy="426.43" r="23.18"/><circle class="cls-81" cx="55.1" cy="426.43" r="22.88"/><circle class="cls-82" cx="55.1" cy="426.43" r="22.58"/><circle class="cls-83" cx="55.1" cy="426.43" r="22.29"/><circle class="cls-84" cx="55.1" cy="426.43" r="21.99"/><circle class="cls-85" cx="55.1" cy="426.43" r="21.69"/><circle class="cls-86" cx="55.1" cy="426.43" r="21.39"/><circle class="cls-87" cx="55.1" cy="426.43" r="21.09"/><circle class="cls-88" cx="55.1" cy="426.43" r="20.79"/><circle class="cls-89" cx="55.1" cy="426.43" r="20.49"/><circle class="cls-90" cx="55.1" cy="426.43" r="20.19"/><circle class="cls-91" cx="55.1" cy="426.43" r="19.89"/><circle class="cls-92" cx="55.1" cy="426.43" r="19.59"/><circle class="cls-93" cx="55.1" cy="426.43" r="19.3"/><circle class="cls-94" cx="55.1" cy="426.43" r="19"/><circle class="cls-95" cx="55.1" cy="426.43" r="18.7"/><circle class="cls-96" cx="55.1" cy="426.43" r="18.4"/><circle class="cls-97" cx="55.1" cy="426.43" r="18.1"/><circle class="cls-98" cx="55.1" cy="426.43" r="17.8"/><circle class="cls-99" cx="55.1" cy="426.43" r="17.5"/><circle class="cls-100" cx="55.1" cy="426.43" r="17.2"/><circle class="cls-101" cx="55.1" cy="426.43" r="16.9"/><circle class="cls-102" cx="55.1" cy="426.43" r="16.61"/><circle class="cls-103" cx="55.1" cy="426.43" r="16.31"/><circle class="cls-104" cx="55.1" cy="426.43" r="16.01"/><circle class="cls-105" cx="55.1" cy="426.43" r="15.71"/><circle class="cls-106" cx="55.1" cy="426.43" r="15.41"/><circle class="cls-107" cx="55.1" cy="426.43" r="15.11"/><circle class="cls-108" cx="55.1" cy="426.43" r="14.81"/><circle class="cls-109" cx="55.1" cy="426.43" r="14.51"/><circle class="cls-110" cx="55.1" cy="426.43" r="14.21"/><circle class="cls-111" cx="55.1" cy="426.43" r="13.91"/><circle class="cls-112" cx="55.1" cy="426.43" r="13.62"/><circle class="cls-113" cx="55.1" cy="426.43" r="13.32"/><circle class="cls-114" cx="55.1" cy="426.43" r="13.02"/><circle class="cls-115" cx="55.1" cy="426.43" r="12.72"/><circle class="cls-116" cx="55.1" cy="426.43" r="12.42"/><circle class="cls-117" cx="55.1" cy="426.43" r="12.12"/><circle class="cls-118" cx="55.1" cy="426.43" r="11.82"/><polyline class="cls-119" points="56 427 848.5 304.5 1178 445"/><line class="cls-119" x1="848" y1="304" x2="510" y2="147"/><circle class="cls-2" cx="1177.98" cy="445.39" r="24.5"/><circle class="cls-3" cx="1177.98" cy="445.39" r="24.34"/><circle class="cls-4" cx="1177.98" cy="445.39" r="24.18"/><circle class="cls-5" cx="1177.98" cy="445.39" r="24.03"/><circle class="cls-6" cx="1177.98" cy="445.39" r="23.87"/><circle class="cls-7" cx="1177.98" cy="445.39" r="23.71"/><circle class="cls-8" cx="1177.98" cy="445.39" r="23.55"/><circle class="cls-9" cx="1177.98" cy="445.39" r="23.4"/><circle class="cls-10" cx="1177.98" cy="445.39" r="23.24"/><circle class="cls-11" cx="1177.98" cy="445.39" r="23.08"/><circle class="cls-12" cx="1177.98" cy="445.39" r="22.92"/><circle class="cls-13" cx="1177.98" cy="445.39" r="22.77"/><circle class="cls-14" cx="1177.98" cy="445.39" r="22.61"/><circle class="cls-15" cx="1177.98" cy="445.39" r="22.45"/><circle class="cls-16" cx="1177.98" cy="445.39" r="22.29"/><circle class="cls-17" cx="1177.98" cy="445.39" r="22.14"/><circle class="cls-18" cx="1177.98" cy="445.39" r="21.98"/><circle class="cls-19" cx="1177.98" cy="445.39" r="21.82"/><circle class="cls-20" cx="1177.98" cy="445.39" r="21.66"/><circle class="cls-21" cx="1177.98" cy="445.39" r="21.51"/><circle class="cls-22" cx="1177.98" cy="445.39" r="21.35"/><circle class="cls-23" cx="1177.98" cy="445.39" r="21.19"/><circle class="cls-24" cx="1177.98" cy="445.39" r="21.03"/><circle class="cls-25" cx="1177.98" cy="445.39" r="20.88"/><circle class="cls-26" cx="1177.98" cy="445.39" r="20.72"/><circle class="cls-27" cx="1177.98" cy="445.39" r="20.56"/><circle class="cls-28" cx="1177.98" cy="445.39" r="20.4"/><circle class="cls-29" cx="1177.98" cy="445.39" r="20.25"/><circle class="cls-30" cx="1177.98" cy="445.39" r="20.09"/><circle class="cls-31" cx="1177.98" cy="445.39" r="19.93"/><circle class="cls-32" cx="1177.98" cy="445.39" r="19.77"/><circle class="cls-33" cx="1177.98" cy="445.39" r="19.62"/><circle class="cls-34" cx="1177.98" cy="445.39" r="19.46"/><circle class="cls-35" cx="1177.98" cy="445.39" r="19.3"/><circle class="cls-36" cx="1177.98" cy="445.39" r="19.14"/><circle class="cls-37" cx="1177.98" cy="445.39" r="18.99"/><circle class="cls-38" cx="1177.98" cy="445.39" r="18.83"/><circle class="cls-39" cx="1177.98" cy="445.39" r="18.67"/><circle class="cls-40" cx="1177.98" cy="445.39" r="18.51"/><circle class="cls-41" cx="1177.98" cy="445.39" r="18.36"/><circle class="cls-42" cx="1177.98" cy="445.39" r="18.2"/><circle class="cls-43" cx="1177.98" cy="445.39" r="18.04"/><circle class="cls-44" cx="1177.98" cy="445.39" r="17.88"/><circle class="cls-45" cx="1177.98" cy="445.39" r="17.73"/><circle class="cls-46" cx="1177.98" cy="445.39" r="17.57"/><circle class="cls-47" cx="1177.98" cy="445.39" r="17.41"/><circle class="cls-48" cx="1177.98" cy="445.39" r="17.25"/><circle class="cls-49" cx="1177.98" cy="445.39" r="17.1"/><circle class="cls-50" cx="1177.98" cy="445.39" r="16.94"/><circle class="cls-51" cx="1177.98" cy="445.39" r="16.78"/><circle class="cls-52" cx="1177.98" cy="445.39" r="16.62"/><circle class="cls-53" cx="1177.98" cy="445.39" r="16.47"/><circle class="cls-54" cx="1177.98" cy="445.39" r="16.31"/><circle class="cls-55" cx="1177.98" cy="445.39" r="16.15"/><circle class="cls-56" cx="1177.98" cy="445.39" r="15.99"/><circle class="cls-57" cx="1177.98" cy="445.39" r="15.84"/><circle class="cls-58" cx="1177.98" cy="445.39" r="15.68"/><circle class="cls-59" cx="1177.98" cy="445.39" r="15.52"/><circle class="cls-60" cx="1177.98" cy="445.39" r="15.36"/><circle class="cls-61" cx="1177.98" cy="445.39" r="15.21"/><circle class="cls-62" cx="1177.98" cy="445.39" r="15.05"/><circle class="cls-63" cx="1177.98" cy="445.39" r="14.89"/><circle class="cls-64" cx="1177.98" cy="445.39" r="14.73"/><circle class="cls-65" cx="1177.98" cy="445.39" r="14.58"/><circle class="cls-66" cx="1177.98" cy="445.39" r="14.42"/><circle class="cls-67" cx="1177.98" cy="445.39" r="14.26"/><circle class="cls-68" cx="1177.98" cy="445.39" r="14.1"/><circle class="cls-69" cx="1177.98" cy="445.39" r="13.95"/><circle class="cls-70" cx="1177.98" cy="445.39" r="13.79"/><circle class="cls-71" cx="1177.98" cy="445.39" r="13.63"/><circle class="cls-72" cx="1177.98" cy="445.39" r="13.47"/><circle class="cls-73" cx="1177.98" cy="445.39" r="13.32"/><circle class="cls-74" cx="1177.98" cy="445.39" r="13.16"/><circle class="cls-75" cx="1177.98" cy="445.39" r="13"/><circle class="cls-76" cx="1177.98" cy="445.39" r="12.84"/><circle class="cls-77" cx="1177.98" cy="445.39" r="12.69"/><circle class="cls-78" cx="1177.98" cy="445.39" r="12.53"/><circle class="cls-79" cx="1177.98" cy="445.39" r="12.37"/><circle class="cls-80" cx="1177.98" cy="445.39" r="12.21"/><circle class="cls-81" cx="1177.98" cy="445.39" r="12.06"/><circle class="cls-82" cx="1177.98" cy="445.39" r="11.9"/><circle class="cls-83" cx="1177.98" cy="445.39" r="11.74"/><circle class="cls-84" cx="1177.98" cy="445.39" r="11.58"/><circle class="cls-85" cx="1177.98" cy="445.39" r="11.43"/><circle class="cls-86" cx="1177.98" cy="445.39" r="11.27"/><circle class="cls-87" cx="1177.98" cy="445.39" r="11.11"/><circle class="cls-88" cx="1177.98" cy="445.39" r="10.95"/><circle class="cls-89" cx="1177.98" cy="445.39" r="10.8"/><circle class="cls-90" cx="1177.98" cy="445.39" r="10.64"/><circle class="cls-91" cx="1177.98" cy="445.39" r="10.48"/><circle class="cls-92" cx="1177.98" cy="445.39" r="10.32"/><circle class="cls-93" cx="1177.98" cy="445.39" r="10.17"/><circle class="cls-94" cx="1177.98" cy="445.39" r="10.01"/><circle class="cls-95" cx="1177.98" cy="445.39" r="9.85"/><circle class="cls-96" cx="1177.98" cy="445.39" r="9.69"/><circle class="cls-97" cx="1177.98" cy="445.39" r="9.54"/><circle class="cls-98" cx="1177.98" cy="445.39" r="9.38"/><circle class="cls-99" cx="1177.98" cy="445.39" r="9.22"/><circle class="cls-100" cx="1177.98" cy="445.39" r="9.06"/><circle class="cls-101" cx="1177.98" cy="445.39" r="8.91"/><circle class="cls-102" cx="1177.98" cy="445.39" r="8.75"/><circle class="cls-103" cx="1177.98" cy="445.39" r="8.59"/><circle class="cls-104" cx="1177.98" cy="445.39" r="8.43"/><circle class="cls-105" cx="1177.98" cy="445.39" r="8.28"/><circle class="cls-106" cx="1177.98" cy="445.39" r="8.12"/><circle class="cls-107" cx="1177.98" cy="445.39" r="7.96"/><circle class="cls-108" cx="1177.98" cy="445.39" r="7.8"/><circle class="cls-109" cx="1177.98" cy="445.39" r="7.65"/><circle class="cls-110" cx="1177.98" cy="445.39" r="7.49"/><circle class="cls-111" cx="1177.98" cy="445.39" r="7.33"/><circle class="cls-112" cx="1177.98" cy="445.39" r="7.17"/><circle class="cls-113" cx="1177.98" cy="445.39" r="7.02"/><circle class="cls-114" cx="1177.98" cy="445.39" r="6.86"/><circle class="cls-115" cx="1177.98" cy="445.39" r="6.7"/><circle class="cls-116" cx="1177.98" cy="445.39" r="6.54"/><circle class="cls-117" cx="1177.98" cy="445.39" r="6.39"/><circle class="cls-118" cx="1177.98" cy="445.39" r="6.23"/><circle class="cls-2" cx="509.5" cy="146.5" r="29"/><circle class="cls-3" cx="509.5" cy="146.5" r="28.81"/><circle class="cls-4" cx="509.5" cy="146.5" r="28.63"/><circle class="cls-5" cx="509.5" cy="146.5" r="28.44"/><circle class="cls-6" cx="509.5" cy="146.5" r="28.25"/><circle class="cls-7" cx="509.5" cy="146.5" r="28.07"/><circle class="cls-8" cx="509.5" cy="146.5" r="27.88"/><circle class="cls-9" cx="509.5" cy="146.5" r="27.69"/><circle class="cls-10" cx="509.5" cy="146.5" r="27.51"/><circle class="cls-11" cx="509.5" cy="146.5" r="27.32"/><circle class="cls-12" cx="509.5" cy="146.5" r="27.14"/><circle class="cls-13" cx="509.5" cy="146.5" r="26.95"/><circle class="cls-14" cx="509.5" cy="146.5" r="26.76"/><circle class="cls-15" cx="509.5" cy="146.5" r="26.58"/><circle class="cls-16" cx="509.5" cy="146.5" r="26.39"/><circle class="cls-17" cx="509.5" cy="146.5" r="26.2"/><circle class="cls-18" cx="509.5" cy="146.5" r="26.02"/><circle class="cls-19" cx="509.5" cy="146.5" r="25.83"/><circle class="cls-20" cx="509.5" cy="146.5" r="25.64"/><circle class="cls-21" cx="509.5" cy="146.5" r="25.46"/><circle class="cls-22" cx="509.5" cy="146.5" r="25.27"/><circle class="cls-23" cx="509.5" cy="146.5" r="25.08"/><circle class="cls-24" cx="509.5" cy="146.5" r="24.9"/><circle class="cls-25" cx="509.5" cy="146.5" r="24.71"/><circle class="cls-26" cx="509.5" cy="146.5" r="24.53"/><circle class="cls-27" cx="509.5" cy="146.5" r="24.34"/><circle class="cls-28" cx="509.5" cy="146.5" r="24.15"/><circle class="cls-29" cx="509.5" cy="146.5" r="23.97"/><circle class="cls-30" cx="509.5" cy="146.5" r="23.78"/><circle class="cls-31" cx="509.5" cy="146.5" r="23.59"/><circle class="cls-32" cx="509.5" cy="146.5" r="23.41"/><circle class="cls-33" cx="509.5" cy="146.5" r="23.22"/><circle class="cls-34" cx="509.5" cy="146.5" r="23.03"/><circle class="cls-35" cx="509.5" cy="146.5" r="22.85"/><circle class="cls-36" cx="509.5" cy="146.5" r="22.66"/><circle class="cls-37" cx="509.5" cy="146.5" r="22.47"/><circle class="cls-38" cx="509.5" cy="146.5" r="22.29"/><circle class="cls-39" cx="509.5" cy="146.5" r="22.1"/><circle class="cls-40" cx="509.5" cy="146.5" r="21.92"/><circle class="cls-41" cx="509.5" cy="146.5" r="21.73"/><circle class="cls-42" cx="509.5" cy="146.5" r="21.54"/><circle class="cls-43" cx="509.5" cy="146.5" r="21.36"/><circle class="cls-44" cx="509.5" cy="146.5" r="21.17"/><circle class="cls-45" cx="509.5" cy="146.5" r="20.98"/><circle class="cls-46" cx="509.5" cy="146.5" r="20.8"/><circle class="cls-47" cx="509.5" cy="146.5" r="20.61"/><circle class="cls-48" cx="509.5" cy="146.5" r="20.42"/><circle class="cls-49" cx="509.5" cy="146.5" r="20.24"/><circle class="cls-50" cx="509.5" cy="146.5" r="20.05"/><circle class="cls-51" cx="509.5" cy="146.5" r="19.86"/><circle class="cls-52" cx="509.5" cy="146.5" r="19.68"/><circle class="cls-53" cx="509.5" cy="146.5" r="19.49"/><circle class="cls-54" cx="509.5" cy="146.5" r="19.31"/><circle class="cls-55" cx="509.5" cy="146.5" r="19.12"/><circle class="cls-56" cx="509.5" cy="146.5" r="18.93"/><circle class="cls-57" cx="509.5" cy="146.5" r="18.75"/><circle class="cls-58" cx="509.5" cy="146.5" r="18.56"/><circle class="cls-59" cx="509.5" cy="146.5" r="18.37"/><circle class="cls-60" cx="509.5" cy="146.5" r="18.19"/><circle class="cls-61" cx="509.5" cy="146.5" r="18"/><circle class="cls-62" cx="509.5" cy="146.5" r="17.81"/><circle class="cls-63" cx="509.5" cy="146.5" r="17.63"/><circle class="cls-64" cx="509.5" cy="146.5" r="17.44"/><circle class="cls-65" cx="509.5" cy="146.5" r="17.25"/><circle class="cls-66" cx="509.5" cy="146.5" r="17.07"/><circle class="cls-67" cx="509.5" cy="146.5" r="16.88"/><circle class="cls-68" cx="509.5" cy="146.5" r="16.69"/><circle class="cls-69" cx="509.5" cy="146.5" r="16.51"/><circle class="cls-70" cx="509.5" cy="146.5" r="16.32"/><circle class="cls-71" cx="509.5" cy="146.5" r="16.14"/><circle class="cls-72" cx="509.5" cy="146.5" r="15.95"/><circle class="cls-73" cx="509.5" cy="146.5" r="15.76"/><circle class="cls-74" cx="509.5" cy="146.5" r="15.58"/><circle class="cls-75" cx="509.5" cy="146.5" r="15.39"/><circle class="cls-76" cx="509.5" cy="146.5" r="15.2"/><circle class="cls-77" cx="509.5" cy="146.5" r="15.02"/><circle class="cls-78" cx="509.5" cy="146.5" r="14.83"/><circle class="cls-79" cx="509.5" cy="146.5" r="14.64"/><circle class="cls-80" cx="509.5" cy="146.5" r="14.46"/><circle class="cls-81" cx="509.5" cy="146.5" r="14.27"/><circle class="cls-82" cx="509.5" cy="146.5" r="14.08"/><circle class="cls-83" cx="509.5" cy="146.5" r="13.9"/><circle class="cls-84" cx="509.5" cy="146.5" r="13.71"/><circle class="cls-85" cx="509.5" cy="146.5" r="13.53"/><circle class="cls-86" cx="509.5" cy="146.5" r="13.34"/><circle class="cls-87" cx="509.5" cy="146.5" r="13.15"/><circle class="cls-88" cx="509.5" cy="146.5" r="12.97"/><circle class="cls-89" cx="509.5" cy="146.5" r="12.78"/><circle class="cls-90" cx="509.5" cy="146.5" r="12.59"/><circle class="cls-91" cx="509.5" cy="146.5" r="12.41"/><circle class="cls-92" cx="509.5" cy="146.5" r="12.22"/><circle class="cls-93" cx="509.5" cy="146.5" r="12.03"/><circle class="cls-94" cx="509.5" cy="146.5" r="11.85"/><circle class="cls-95" cx="509.5" cy="146.5" r="11.66"/><circle class="cls-96" cx="509.5" cy="146.5" r="11.47"/><circle class="cls-97" cx="509.5" cy="146.5" r="11.29"/><circle class="cls-98" cx="509.5" cy="146.5" r="11.1"/><circle class="cls-99" cx="509.5" cy="146.5" r="10.92"/><circle class="cls-100" cx="509.5" cy="146.5" r="10.73"/><circle class="cls-101" cx="509.5" cy="146.5" r="10.54"/><circle class="cls-102" cx="509.5" cy="146.5" r="10.36"/><circle class="cls-103" cx="509.5" cy="146.5" r="10.17"/><circle class="cls-104" cx="509.5" cy="146.5" r="9.98"/><circle class="cls-105" cx="509.5" cy="146.5" r="9.8"/><circle class="cls-106" cx="509.5" cy="146.5" r="9.61"/><circle class="cls-107" cx="509.5" cy="146.5" r="9.42"/><circle class="cls-108" cx="509.5" cy="146.5" r="9.24"/><circle class="cls-109" cx="509.5" cy="146.5" r="9.05"/><circle class="cls-110" cx="509.5" cy="146.5" r="8.86"/><circle class="cls-111" cx="509.5" cy="146.5" r="8.68"/><circle class="cls-112" cx="509.5" cy="146.5" r="8.49"/><circle class="cls-113" cx="509.5" cy="146.5" r="8.31"/><circle class="cls-114" cx="509.5" cy="146.5" r="8.12"/><circle class="cls-115" cx="509.5" cy="146.5" r="7.93"/><circle class="cls-116" cx="509.5" cy="146.5" r="7.75"/><circle class="cls-117" cx="509.5" cy="146.5" r="7.56"/><circle class="cls-118" cx="509.5" cy="146.5" r="7.37"/><polyline class="cls-119" points="1177.5 445.5 1134.5 79.5 848 304 749.95 476.5"/><rect class="cls-120" x="4.5" y="4.5" width="1204" height="472"/><circle class="cls-2" cx="847.98" cy="304.39" r="24.5"/><circle class="cls-3" cx="847.98" cy="304.39" r="24.34"/><circle class="cls-4" cx="847.98" cy="304.39" r="24.18"/><circle class="cls-5" cx="847.98" cy="304.39" r="24.03"/><circle class="cls-6" cx="847.98" cy="304.39" r="23.87"/><circle class="cls-7" cx="847.98" cy="304.39" r="23.71"/><circle class="cls-8" cx="847.98" cy="304.39" r="23.55"/><circle class="cls-9" cx="847.98" cy="304.39" r="23.4"/><circle class="cls-10" cx="847.98" cy="304.39" r="23.24"/><circle class="cls-11" cx="847.98" cy="304.39" r="23.08"/><circle class="cls-12" cx="847.98" cy="304.39" r="22.92"/><circle class="cls-13" cx="847.98" cy="304.39" r="22.77"/><circle class="cls-14" cx="847.98" cy="304.39" r="22.61"/><circle class="cls-15" cx="847.98" cy="304.39" r="22.45"/><circle class="cls-16" cx="847.98" cy="304.39" r="22.29"/><circle class="cls-17" cx="847.98" cy="304.39" r="22.14"/><circle class="cls-18" cx="847.98" cy="304.39" r="21.98"/><circle class="cls-19" cx="847.98" cy="304.39" r="21.82"/><circle class="cls-20" cx="847.98" cy="304.39" r="21.66"/><circle class="cls-21" cx="847.98" cy="304.39" r="21.51"/><circle class="cls-22" cx="847.98" cy="304.39" r="21.35"/><circle class="cls-23" cx="847.98" cy="304.39" r="21.19"/><circle class="cls-24" cx="847.98" cy="304.39" r="21.03"/><circle class="cls-25" cx="847.98" cy="304.39" r="20.88"/><circle class="cls-26" cx="847.98" cy="304.39" r="20.72"/><circle class="cls-27" cx="847.98" cy="304.39" r="20.56"/><circle class="cls-28" cx="847.98" cy="304.39" r="20.4"/><circle class="cls-29" cx="847.98" cy="304.39" r="20.25"/><circle class="cls-30" cx="847.98" cy="304.39" r="20.09"/><circle class="cls-31" cx="847.98" cy="304.39" r="19.93"/><circle class="cls-32" cx="847.98" cy="304.39" r="19.77"/><circle class="cls-33" cx="847.98" cy="304.39" r="19.62"/><circle class="cls-34" cx="847.98" cy="304.39" r="19.46"/><circle class="cls-35" cx="847.98" cy="304.39" r="19.3"/><circle class="cls-36" cx="847.98" cy="304.39" r="19.14"/><circle class="cls-37" cx="847.98" cy="304.39" r="18.99"/><circle class="cls-38" cx="847.98" cy="304.39" r="18.83"/><circle class="cls-39" cx="847.98" cy="304.39" r="18.67"/><circle class="cls-40" cx="847.98" cy="304.39" r="18.51"/><circle class="cls-41" cx="847.98" cy="304.39" r="18.36"/><circle class="cls-42" cx="847.98" cy="304.39" r="18.2"/><circle class="cls-43" cx="847.98" cy="304.39" r="18.04"/><circle class="cls-44" cx="847.98" cy="304.39" r="17.88"/><circle class="cls-45" cx="847.98" cy="304.39" r="17.73"/><circle class="cls-46" cx="847.98" cy="304.39" r="17.57"/><circle class="cls-47" cx="847.98" cy="304.39" r="17.41"/><circle class="cls-48" cx="847.98" cy="304.39" r="17.25"/><circle class="cls-49" cx="847.98" cy="304.39" r="17.1"/><circle class="cls-50" cx="847.98" cy="304.39" r="16.94"/><circle class="cls-51" cx="847.98" cy="304.39" r="16.78"/><circle class="cls-52" cx="847.98" cy="304.39" r="16.62"/><circle class="cls-53" cx="847.98" cy="304.39" r="16.47"/><circle class="cls-54" cx="847.98" cy="304.39" r="16.31"/><circle class="cls-55" cx="847.98" cy="304.39" r="16.15"/><circle class="cls-56" cx="847.98" cy="304.39" r="15.99"/><circle class="cls-57" cx="847.98" cy="304.39" r="15.84"/><circle class="cls-58" cx="847.98" cy="304.39" r="15.68"/><circle class="cls-59" cx="847.98" cy="304.39" r="15.52"/><circle class="cls-60" cx="847.98" cy="304.39" r="15.36"/><circle class="cls-61" cx="847.98" cy="304.39" r="15.21"/><circle class="cls-62" cx="847.98" cy="304.39" r="15.05"/><circle class="cls-63" cx="847.98" cy="304.39" r="14.89"/><circle class="cls-64" cx="847.98" cy="304.39" r="14.73"/><circle class="cls-65" cx="847.98" cy="304.39" r="14.58"/><circle class="cls-66" cx="847.98" cy="304.39" r="14.42"/><circle class="cls-67" cx="847.98" cy="304.39" r="14.26"/><circle class="cls-68" cx="847.98" cy="304.39" r="14.1"/><circle class="cls-69" cx="847.98" cy="304.39" r="13.95"/><circle class="cls-70" cx="847.98" cy="304.39" r="13.79"/><circle class="cls-71" cx="847.98" cy="304.39" r="13.63"/><circle class="cls-72" cx="847.98" cy="304.39" r="13.47"/><circle class="cls-73" cx="847.98" cy="304.39" r="13.32"/><circle class="cls-74" cx="847.98" cy="304.39" r="13.16"/><circle class="cls-75" cx="847.98" cy="304.39" r="13"/><circle class="cls-76" cx="847.98" cy="304.39" r="12.84"/><circle class="cls-77" cx="847.98" cy="304.39" r="12.69"/><circle class="cls-78" cx="847.98" cy="304.39" r="12.53"/><circle class="cls-79" cx="847.98" cy="304.39" r="12.37"/><circle class="cls-80" cx="847.98" cy="304.39" r="12.21"/><circle class="cls-81" cx="847.98" cy="304.39" r="12.06"/><circle class="cls-82" cx="847.98" cy="304.39" r="11.9"/><circle class="cls-83" cx="847.98" cy="304.39" r="11.74"/><circle class="cls-84" cx="847.98" cy="304.39" r="11.58"/><circle class="cls-85" cx="847.98" cy="304.39" r="11.43"/><circle class="cls-86" cx="847.98" cy="304.39" r="11.27"/><circle class="cls-87" cx="847.98" cy="304.39" r="11.11"/><circle class="cls-88" cx="847.98" cy="304.39" r="10.95"/><circle class="cls-89" cx="847.98" cy="304.39" r="10.8"/><circle class="cls-90" cx="847.98" cy="304.39" r="10.64"/><circle class="cls-91" cx="847.98" cy="304.39" r="10.48"/><circle class="cls-92" cx="847.98" cy="304.39" r="10.32"/><circle class="cls-93" cx="847.98" cy="304.39" r="10.17"/><circle class="cls-94" cx="847.98" cy="304.39" r="10.01"/><circle class="cls-95" cx="847.98" cy="304.39" r="9.85"/><circle class="cls-96" cx="847.98" cy="304.39" r="9.69"/><circle class="cls-97" cx="847.98" cy="304.39" r="9.54"/><circle class="cls-98" cx="847.98" cy="304.39" r="9.38"/><circle class="cls-99" cx="847.98" cy="304.39" r="9.22"/><circle class="cls-100" cx="847.98" cy="304.39" r="9.06"/><circle class="cls-101" cx="847.98" cy="304.39" r="8.91"/><circle class="cls-102" cx="847.98" cy="304.39" r="8.75"/><circle class="cls-103" cx="847.98" cy="304.39" r="8.59"/><circle class="cls-104" cx="847.98" cy="304.39" r="8.43"/><circle class="cls-105" cx="847.98" cy="304.39" r="8.28"/><circle class="cls-106" cx="847.98" cy="304.39" r="8.12"/><circle class="cls-107" cx="847.98" cy="304.39" r="7.96"/><circle class="cls-108" cx="847.98" cy="304.39" r="7.8"/><circle class="cls-109" cx="847.98" cy="304.39" r="7.65"/><circle class="cls-110" cx="847.98" cy="304.39" r="7.49"/><circle class="cls-111" cx="847.98" cy="304.39" r="7.33"/><circle class="cls-112" cx="847.98" cy="304.39" r="7.17"/><circle class="cls-113" cx="847.98" cy="304.39" r="7.02"/><circle class="cls-114" cx="847.98" cy="304.39" r="6.86"/><circle class="cls-115" cx="847.98" cy="304.39" r="6.7"/><circle class="cls-116" cx="847.98" cy="304.39" r="6.54"/><circle class="cls-117" cx="847.98" cy="304.39" r="6.39"/><circle class="cls-118" cx="847.98" cy="304.39" r="6.23"/></g></g></svg>