<svg xmlns="http://www.w3.org/2000/svg" viewBox="0 0 487 6637.76"><defs><style>.cls-1{opacity:0.99;}.cls-2{fill:#8a51b8;}.cls-3{fill:#914cb9;}.cls-4{opacity:0.98;}.cls-5{fill:#8356b6;}.cls-6{opacity:0.94;}.cls-7{fill:#6e66b2;}.cls-8{opacity:0.95;}.cls-9{fill:#7561b4;}.cls-10{opacity:0.97;}.cls-11{fill:#7c5cb5;}.cls-12{opacity:0.9;}.cls-13{fill:#537bad;}.cls-14{opacity:0.91;}.cls-15{fill:#5a76ae;}.cls-16{opacity:0.92;}.cls-17{fill:#6171b0;}.cls-18{opacity:0.93;}.cls-19{fill:#686bb1;}.cls-20{opacity:0.87;}.cls-21{fill:#4586aa;}.cls-22{opacity:0.89;}.cls-23{fill:#4c80ac;}.cls-24{opacity:0.86;}.cls-25{fill:#3e8ba9;}.cls-26{opacity:0.83;}.cls-27{fill:#299ba5;}.cls-28{opacity:0.84;}.cls-29{fill:#3095a6;}.cls-30{opacity:0.85;}.cls-31{fill:#3790a8;}.cls-32{opacity:0.82;}.cls-33{fill:#23a0a4;}.cls-34{opacity:0.81;}.cls-35{fill:#1ca5a2;}.cls-36{opacity:0.76;}.cls-37{fill:#00ba9d;}.cls-38{opacity:0.77;}.cls-39{fill:#07b59e;}.cls-40{opacity:0.78;}.cls-41{fill:#0eb0a0;}.cls-42{opacity:0.79;}.cls-43{fill:#15aaa1;}</style></defs><title>w_cycle</title><g id="Layer_2" data-name="Layer 2"><g id="Layer_4" data-name="Layer 4"><g class="cls-1"><circle class="cls-2" cx="241.5" cy="55.88" r="55.88"/></g><circle class="cls-3" cx="241.5" cy="65.26" r="46.5"/><g class="cls-4"><circle class="cls-5" cx="243.5" cy="784.5" r="65.26"/></g><g class="cls-1"><circle class="cls-2" cx="243.5" cy="793.88" r="55.88"/></g><circle class="cls-3" cx="243.5" cy="803.26" r="46.5"/><g class="cls-6"><circle class="cls-7" cx="243.5" cy="1488.36" r="93.4"/></g><g class="cls-8"><circle class="cls-9" cx="243.5" cy="1497.74" r="84.02"/></g><g class="cls-10"><circle class="cls-11" cx="243.5" cy="1507.12" r="74.64"/></g><g class="cls-4"><circle class="cls-5" cx="243.5" cy="1516.5" r="65.26"/></g><g class="cls-1"><circle class="cls-2" cx="243.5" cy="1525.88" r="55.88"/></g><circle class="cls-3" cx="243.5" cy="1535.26" r="46.5"/><g class="cls-12"><circle class="cls-13" cx="243.5" cy="2174.83" r="130.93"/></g><g class="cls-14"><circle class="cls-15" cx="243.5" cy="2184.21" r="121.55"/></g><g class="cls-16"><circle class="cls-17" cx="243.5" cy="2193.6" r="112.17"/></g><g class="cls-18"><circle class="cls-19" cx="243.5" cy="2202.98" r="102.79"/></g><g class="cls-6"><circle class="cls-7" cx="243.5" cy="2212.36" r="93.4"/></g><g class="cls-8"><circle class="cls-9" cx="243.5" cy="2221.74" r="84.02"/></g><g class="cls-10"><circle class="cls-11" cx="243.5" cy="2231.12" r="74.64"/></g><g class="cls-4"><circle class="cls-5" cx="243.5" cy="2240.5" r="65.26"/></g><g class="cls-1"><circle class="cls-2" cx="243.5" cy="2249.88" r="55.88"/></g><circle class="cls-3" cx="243.5" cy="2259.26" r="46.5"/><g class="cls-20"><circle class="cls-21" cx="242.5" cy="2871.07" r="149.69"/></g><g class="cls-22"><circle class="cls-23" cx="242.5" cy="2880.45" r="140.31"/></g><g class="cls-12"><circle class="cls-13" cx="242.5" cy="2889.83" r="130.93"/></g><g class="cls-14"><circle class="cls-15" cx="242.5" cy="2899.21" r="121.55"/></g><g class="cls-16"><circle class="cls-17" cx="242.5" cy="2908.6" r="112.17"/></g><g class="cls-18"><circle class="cls-19" cx="242.5" cy="2917.98" r="102.79"/></g><g class="cls-6"><circle class="cls-7" cx="242.5" cy="2927.36" r="93.4"/></g><g class="cls-8"><circle class="cls-9" cx="242.5" cy="2936.74" r="84.02"/></g><g class="cls-10"><circle class="cls-11" cx="242.5" cy="2946.12" r="74.64"/></g><g class="cls-4"><circle class="cls-5" cx="242.5" cy="2955.5" r="65.26"/></g><g class="cls-1"><circle class="cls-2" cx="242.5" cy="2964.88" r="55.88"/></g><circle class="cls-3" cx="242.5" cy="2974.26" r="46.5"/><g class="cls-24"><circle class="cls-25" cx="243.5" cy="3594.69" r="159.07"/></g><g class="cls-20"><circle class="cls-21" cx="243.5" cy="3604.07" r="149.69"/></g><g class="cls-22"><circle class="cls-23" cx="243.5" cy="3613.45" r="140.31"/></g><g class="cls-12"><circle class="cls-13" cx="243.5" cy="3622.83" r="130.93"/></g><g class="cls-14"><circle class="cls-15" cx="243.5" cy="3632.21" r="121.55"/></g><g class="cls-16"><circle class="cls-17" cx="243.5" cy="3641.6" r="112.17"/></g><g class="cls-18"><circle class="cls-19" cx="243.5" cy="3650.98" r="102.79"/></g><g class="cls-6"><circle class="cls-7" cx="243.5" cy="3660.36" r="93.4"/></g><g class="cls-8"><circle class="cls-9" cx="243.5" cy="3669.74" r="84.02"/></g><g class="cls-10"><circle class="cls-11" cx="243.5" cy="3679.12" r="74.64"/></g><g class="cls-4"><circle class="cls-5" cx="243.5" cy="3688.5" r="65.26"/></g><g class="cls-1"><circle class="cls-2" cx="243.5" cy="3697.88" r="55.88"/></g><circle class="cls-3" cx="243.5" cy="3707.26" r="46.5"/><g class="cls-26"><circle class="cls-27" cx="243.5" cy="4292.55" r="187.21"/></g><g class="cls-28"><circle class="cls-29" cx="243.5" cy="4301.93" r="177.83"/></g><g class="cls-30"><circle class="cls-31" cx="243.5" cy="4311.31" r="168.45"/></g><g class="cls-24"><circle class="cls-25" cx="243.5" cy="4320.69" r="159.07"/></g><g class="cls-20"><circle class="cls-21" cx="243.5" cy="4330.07" r="149.69"/></g><g class="cls-22"><circle class="cls-23" cx="243.5" cy="4339.45" r="140.31"/></g><g class="cls-12"><circle class="cls-13" cx="243.5" cy="4348.83" r="130.93"/></g><g class="cls-14"><circle class="cls-15" cx="243.5" cy="4358.21" r="121.55"/></g><g class="cls-16"><circle class="cls-17" cx="243.5" cy="4367.6" r="112.17"/></g><g class="cls-18"><circle class="cls-19" cx="243.5" cy="4376.98" r="102.79"/></g><g class="cls-6"><circle class="cls-7" cx="243.5" cy="4386.36" r="93.4"/></g><g class="cls-8"><circle class="cls-9" cx="243.5" cy="4395.74" r="84.02"/></g><g class="cls-10"><circle class="cls-11" cx="243.5" cy="4405.12" r="74.64"/></g><g class="cls-4"><circle class="cls-5" cx="243.5" cy="4414.5" r="65.26"/></g><g class="cls-1"><circle class="cls-2" cx="243.5" cy="4423.88" r="55.88"/></g><circle class="cls-3" cx="243.5" cy="4433.26" r="46.5"/><g class="cls-32"><circle class="cls-33" cx="242.5" cy="4999.17" r="196.6"/></g><g class="cls-26"><circle class="cls-27" cx="242.5" cy="5008.55" r="187.21"/></g><g class="cls-28"><circle class="cls-29" cx="242.5" cy="5017.93" r="177.83"/></g><g class="cls-30"><circle class="cls-31" cx="242.5" cy="5027.31" r="168.45"/></g><g class="cls-24"><circle class="cls-25" cx="242.5" cy="5036.69" r="159.07"/></g><g class="cls-20"><circle class="cls-21" cx="242.5" cy="5046.07" r="149.69"/></g><g class="cls-22"><circle class="cls-23" cx="242.5" cy="5055.45" r="140.31"/></g><g class="cls-12"><circle class="cls-13" cx="242.5" cy="5064.83" r="130.93"/></g><g class="cls-14"><circle class="cls-15" cx="242.5" cy="5074.21" r="121.55"/></g><g class="cls-16"><circle class="cls-17" cx="242.5" cy="5083.6" r="112.17"/></g><g class="cls-18"><circle class="cls-19" cx="242.5" cy="5092.98" r="102.79"/></g><g class="cls-6"><circle class="cls-7" cx="242.5" cy="5102.36" r="93.4"/></g><g class="cls-8"><circle class="cls-9" cx="242.5" cy="5111.74" r="84.02"/></g><g class="cls-10"><circle class="cls-11" cx="242.5" cy="5121.12" r="74.64"/></g><g class="cls-4"><circle class="cls-5" cx="242.5" cy="5130.5" r="65.26"/></g><g class="cls-1"><circle class="cls-2" cx="242.5" cy="5139.88" r="55.88"/></g><circle class="cls-3" cx="242.5" cy="5149.26" r="46.5"/><g class="cls-34"><circle class="cls-35" cx="243.5" cy="5709.79" r="205.98"/></g><g class="cls-32"><circle class="cls-33" cx="243.5" cy="5719.17" r="196.6"/></g><g class="cls-26"><circle class="cls-27" cx="243.5" cy="5728.55" r="187.21"/></g><g class="cls-28"><circle class="cls-29" cx="243.5" cy="5737.93" r="177.83"/></g><g class="cls-30"><circle class="cls-31" cx="243.5" cy="5747.31" r="168.45"/></g><g class="cls-24"><circle class="cls-25" cx="243.5" cy="5756.69" r="159.07"/></g><g class="cls-20"><circle class="cls-21" cx="243.5" cy="5766.07" r="149.69"/></g><g class="cls-22"><circle class="cls-23" cx="243.5" cy="5775.45" r="140.31"/></g><g class="cls-12"><circle class="cls-13" cx="243.5" cy="5784.83" r="130.93"/></g><g class="cls-14"><circle class="cls-15" cx="243.5" cy="5794.21" r="121.55"/></g><g class="cls-16"><circle class="cls-17" cx="243.5" cy="5803.6" r="112.17"/></g><g class="cls-18"><circle class="cls-19" cx="243.5" cy="5812.98" r="102.79"/></g><g class="cls-6"><circle class="cls-7" cx="243.5" cy="5822.36" r="93.4"/></g><g class="cls-8"><circle class="cls-9" cx="243.5" cy="5831.74" r="84.02"/></g><g class="cls-10"><circle class="cls-11" cx="243.5" cy="5841.12" r="74.64"/></g><g class="cls-4"><circle class="cls-5" cx="243.5" cy="5850.5" r="65.26"/></g><g class="cls-1"><circle class="cls-2" cx="243.5" cy="5859.88" r="55.88"/></g><circle class="cls-3" cx="243.5" cy="5869.26" r="46.5"/><g class="cls-36"><circle class="cls-37" cx="243.5" cy="6394.26" r="243.5"/></g><g class="cls-38"><circle class="cls-39" cx="243.5" cy="6403.64" r="234.12"/></g><g class="cls-40"><circle class="cls-41" cx="243.5" cy="6413.02" r="224.74"/></g><g class="cls-42"><circle class="cls-43" cx="243.5" cy="6422.4" r="215.36"/></g><g class="cls-34"><circle class="cls-35" cx="243.5" cy="6431.79" r="205.98"/></g><g class="cls-32"><circle class="cls-33" cx="243.5" cy="6441.17" r="196.6"/></g><g class="cls-26"><circle class="cls-27" cx="243.5" cy="6450.55" r="187.21"/></g><g class="cls-28"><circle class="cls-29" cx="243.5" cy="6459.93" r="177.83"/></g><g class="cls-30"><circle class="cls-31" cx="243.5" cy="6469.31" r="168.45"/></g><g class="cls-24"><circle class="cls-25" cx="243.5" cy="6478.69" r="159.07"/></g><g class="cls-20"><circle class="cls-21" cx="243.5" cy="6488.07" r="149.69"/></g><g class="cls-22"><circle class="cls-23" cx="243.5" cy="6497.45" r="140.31"/></g><g class="cls-12"><circle class="cls-13" cx="243.5" cy="6506.83" r="130.93"/></g><g class="cls-14"><circle class="cls-15" cx="243.5" cy="6516.21" r="121.55"/></g><g class="cls-16"><circle class="cls-17" cx="243.5" cy="6525.6" r="112.17"/></g><g class="cls-18"><circle class="cls-19" cx="243.5" cy="6534.98" r="102.79"/></g><g class="cls-6"><circle class="cls-7" cx="243.5" cy="6544.36" r="93.4"/></g><g class="cls-8"><circle class="cls-9" cx="243.5" cy="6553.74" r="84.02"/></g><g class="cls-10"><circle class="cls-11" cx="243.5" cy="6563.12" r="74.64"/></g><g class="cls-4"><circle class="cls-5" cx="243.5" cy="6572.5" r="65.26"/></g><g class="cls-1"><circle class="cls-2" cx="243.5" cy="6581.88" r="55.88"/></g><circle class="cls-3" cx="243.5" cy="6591.26" r="46.5"/></g></g></svg>